G04 #@! TF.GenerationSoftware,KiCad,Pcbnew,(5.1.2-1)-1*
G04 #@! TF.CreationDate,2020-05-12T22:35:20+08:00*
G04 #@! TF.ProjectId,arduino_uno_exboard,61726475-696e-46f5-9f75-6e6f5f657862,rev?*
G04 #@! TF.SameCoordinates,Original*
G04 #@! TF.FileFunction,Copper,L2,Bot*
G04 #@! TF.FilePolarity,Positive*
%FSLAX46Y46*%
G04 Gerber Fmt 4.6, Leading zero omitted, Abs format (unit mm)*
G04 Created by KiCad (PCBNEW (5.1.2-1)-1) date 2020-05-12 22:35:20*
%MOMM*%
%LPD*%
G04 APERTURE LIST*
%ADD10O,1.600000X1.600000*%
%ADD11C,1.600000*%
%ADD12O,3.048000X1.727200*%
%ADD13C,1.778000*%
%ADD14C,2.286000*%
%ADD15O,1.700000X1.700000*%
%ADD16R,1.700000X1.700000*%
%ADD17O,1.727200X2.032000*%
%ADD18C,4.064000*%
%ADD19C,0.600000*%
%ADD20C,0.250000*%
%ADD21C,0.254000*%
G04 APERTURE END LIST*
D10*
X136398000Y-88265000D03*
D11*
X126238000Y-88265000D03*
D12*
X138938000Y-107395000D03*
X138938000Y-112395000D03*
X126438000Y-107395000D03*
X126438000Y-112395000D03*
D13*
X154178000Y-99695000D03*
X156718000Y-99695000D03*
X159258000Y-99695000D03*
D14*
X163385500Y-117475000D03*
X150050500Y-117475000D03*
X150050500Y-102235000D03*
X163385500Y-102235000D03*
D13*
X146558000Y-112395000D03*
X146558000Y-109855000D03*
X146558000Y-107315000D03*
X164338000Y-113030000D03*
X164338000Y-106680000D03*
X169418000Y-113030000D03*
X169418000Y-106680000D03*
D15*
X166878000Y-88265000D03*
X169418000Y-88265000D03*
X166878000Y-85725000D03*
X169418000Y-85725000D03*
X166878000Y-83185000D03*
X169418000Y-83185000D03*
X166878000Y-80645000D03*
D16*
X169418000Y-80645000D03*
D17*
X138938000Y-123825000D03*
X141478000Y-123825000D03*
X144018000Y-123825000D03*
X146558000Y-123825000D03*
X149098000Y-123825000D03*
X151638000Y-123825000D03*
X154178000Y-123825000D03*
X156718000Y-123825000D03*
X161798000Y-123825000D03*
X164338000Y-123825000D03*
X166878000Y-123825000D03*
X169418000Y-123825000D03*
X171958000Y-123825000D03*
X174498000Y-123825000D03*
X129794000Y-75565000D03*
X132334000Y-75565000D03*
X134874000Y-75565000D03*
X137414000Y-75565000D03*
X139954000Y-75565000D03*
X142494000Y-75565000D03*
X145034000Y-75565000D03*
X147574000Y-75565000D03*
X150114000Y-75565000D03*
X152654000Y-75565000D03*
X156718000Y-75565000D03*
X159258000Y-75565000D03*
X161798000Y-75565000D03*
X164338000Y-75565000D03*
X166878000Y-75565000D03*
X169418000Y-75565000D03*
X171958000Y-75565000D03*
X174498000Y-75565000D03*
D18*
X124968000Y-123825000D03*
X177038000Y-118745000D03*
X126238000Y-75565000D03*
X177038000Y-90805000D03*
D19*
X154178000Y-104775000D03*
X166878000Y-103505000D03*
X146558000Y-95885000D03*
X154178000Y-108585000D03*
X159258000Y-112395000D03*
X165607992Y-116205000D03*
X171958000Y-79375000D03*
X154178000Y-118745000D03*
D20*
X156718000Y-97155000D02*
X158369001Y-98806001D01*
X158369001Y-98806001D02*
X159258000Y-99695000D01*
X149122929Y-97155000D02*
X156718000Y-97155000D01*
X146558000Y-99719929D02*
X149122929Y-97155000D01*
X146558000Y-107315000D02*
X146558000Y-99719929D01*
X149098000Y-123672600D02*
X149098000Y-123825000D01*
X147832000Y-122559000D02*
X147984400Y-122559000D01*
X138938000Y-113665000D02*
X147832000Y-122559000D01*
X147984400Y-122559000D02*
X149098000Y-123672600D01*
X138938000Y-112395000D02*
X138938000Y-113665000D01*
X144932400Y-107315000D02*
X146558000Y-107315000D01*
X139852400Y-112395000D02*
X144932400Y-107315000D01*
X138938000Y-112395000D02*
X139852400Y-112395000D01*
X168529001Y-107568999D02*
X169418000Y-106680000D01*
X168203999Y-107894001D02*
X168529001Y-107568999D01*
X157297001Y-107894001D02*
X168203999Y-107894001D01*
X154178000Y-104775000D02*
X157297001Y-107894001D01*
X146558000Y-112395000D02*
X154178000Y-104775000D01*
X154178000Y-99695000D02*
X154178000Y-104775000D01*
X146558000Y-113652235D02*
X146558000Y-112395000D01*
X146558000Y-116155142D02*
X146558000Y-113652235D01*
X151638000Y-121235142D02*
X146558000Y-116155142D01*
X151638000Y-123825000D02*
X151638000Y-121235142D01*
X162033790Y-96704990D02*
X166878000Y-101549200D01*
X166878000Y-101549200D02*
X166878000Y-103505000D01*
X152457990Y-96704990D02*
X162033790Y-96704990D01*
X132334000Y-76581000D02*
X152457990Y-96704990D01*
X132334000Y-75565000D02*
X132334000Y-76581000D01*
X129794000Y-75717400D02*
X146558000Y-92481400D01*
X129794000Y-75565000D02*
X129794000Y-75717400D01*
X146558000Y-92481400D02*
X146558000Y-95885000D01*
X154178000Y-108585000D02*
X157988000Y-112395000D01*
X157988000Y-112395000D02*
X159258000Y-112395000D01*
X174498000Y-123825000D02*
X174498000Y-123672600D01*
X174498000Y-123672600D02*
X167030400Y-116205000D01*
X167030400Y-116205000D02*
X166032256Y-116205000D01*
X166032256Y-116205000D02*
X165607992Y-116205000D01*
X152654000Y-76831000D02*
X153928000Y-78105000D01*
X152654000Y-75565000D02*
X152654000Y-76831000D01*
X153928000Y-78105000D02*
X160528000Y-78105000D01*
X168053001Y-81820001D02*
X168568001Y-82335001D01*
X164243001Y-81820001D02*
X168053001Y-81820001D01*
X168568001Y-82335001D02*
X169418000Y-83185000D01*
X160528000Y-78105000D02*
X164243001Y-81820001D01*
X169418000Y-75565000D02*
X169418000Y-76835000D01*
X169418000Y-76835000D02*
X171958000Y-79375000D01*
X170518000Y-80645000D02*
X169418000Y-80645000D01*
X172212000Y-82339000D02*
X170518000Y-80645000D01*
X164566600Y-115138200D02*
X172212000Y-107492800D01*
X157784800Y-115138200D02*
X164566600Y-115138200D01*
X172212000Y-107492800D02*
X172212000Y-82339000D01*
X154178000Y-118745000D02*
X157784800Y-115138200D01*
X153928000Y-88265000D02*
X165675919Y-88265000D01*
X165675919Y-88265000D02*
X166878000Y-88265000D01*
X142494000Y-76831000D02*
X153928000Y-88265000D01*
X142494000Y-75565000D02*
X142494000Y-76831000D01*
X146222610Y-76906010D02*
X151566990Y-76906010D01*
X145034000Y-75717400D02*
X146222610Y-76906010D01*
X145034000Y-75565000D02*
X145034000Y-75717400D01*
X151566990Y-76906010D02*
X154035980Y-79375000D01*
X154035980Y-79375000D02*
X160528000Y-79375000D01*
X168568001Y-84875001D02*
X169418000Y-85725000D01*
X168242999Y-84549999D02*
X168568001Y-84875001D01*
X165702999Y-84549999D02*
X168242999Y-84549999D01*
X160528000Y-79375000D02*
X165702999Y-84549999D01*
D21*
G36*
X124166406Y-73864887D02*
G01*
X123874536Y-74301702D01*
X123673492Y-74787065D01*
X123571000Y-75302323D01*
X123571000Y-75827677D01*
X123673492Y-76342935D01*
X123874536Y-76828298D01*
X124166406Y-77265113D01*
X124537887Y-77636594D01*
X124974702Y-77928464D01*
X125460065Y-78129508D01*
X125975323Y-78232000D01*
X126500677Y-78232000D01*
X127015935Y-78129508D01*
X127501298Y-77928464D01*
X127938113Y-77636594D01*
X128309594Y-77265113D01*
X128601464Y-76828298D01*
X128657001Y-76694219D01*
X128729203Y-76782197D01*
X128957395Y-76969469D01*
X129217737Y-77108625D01*
X129500224Y-77194316D01*
X129794000Y-77223251D01*
X130087777Y-77194316D01*
X130170900Y-77169101D01*
X145798000Y-92796202D01*
X145798001Y-95339463D01*
X145729414Y-95442111D01*
X145658932Y-95612271D01*
X145623000Y-95792911D01*
X145623000Y-95977089D01*
X145658932Y-96157729D01*
X145729414Y-96327889D01*
X145831738Y-96481028D01*
X145961972Y-96611262D01*
X146115111Y-96713586D01*
X146285271Y-96784068D01*
X146465911Y-96820000D01*
X146650089Y-96820000D01*
X146830729Y-96784068D01*
X147000889Y-96713586D01*
X147154028Y-96611262D01*
X147284262Y-96481028D01*
X147386586Y-96327889D01*
X147457068Y-96157729D01*
X147493000Y-95977089D01*
X147493000Y-95792911D01*
X147457068Y-95612271D01*
X147386586Y-95442111D01*
X147318000Y-95339465D01*
X147318000Y-92639802D01*
X151073198Y-96395000D01*
X149160251Y-96395000D01*
X149122928Y-96391324D01*
X149085605Y-96395000D01*
X149085596Y-96395000D01*
X148973943Y-96405997D01*
X148830682Y-96449454D01*
X148698653Y-96520026D01*
X148698651Y-96520027D01*
X148698652Y-96520027D01*
X148611925Y-96591201D01*
X148611921Y-96591205D01*
X148582928Y-96614999D01*
X148559134Y-96643992D01*
X146046998Y-99156130D01*
X146018000Y-99179928D01*
X145994202Y-99208926D01*
X145994201Y-99208927D01*
X145923026Y-99295653D01*
X145852454Y-99427683D01*
X145808998Y-99570944D01*
X145794324Y-99719929D01*
X145798001Y-99757261D01*
X145798000Y-105989917D01*
X145586507Y-106131232D01*
X145374232Y-106343507D01*
X145232917Y-106555000D01*
X144969723Y-106555000D01*
X144932400Y-106551324D01*
X144895077Y-106555000D01*
X144895067Y-106555000D01*
X144783414Y-106565997D01*
X144640153Y-106609454D01*
X144508123Y-106680026D01*
X144424483Y-106748668D01*
X144392399Y-106774999D01*
X144368601Y-106803997D01*
X140170183Y-111002416D01*
X139892177Y-110918084D01*
X139672019Y-110896400D01*
X138203981Y-110896400D01*
X137983823Y-110918084D01*
X137701336Y-111003775D01*
X137440994Y-111142931D01*
X137212803Y-111330203D01*
X137025531Y-111558394D01*
X136886375Y-111818736D01*
X136800684Y-112101223D01*
X136771749Y-112395000D01*
X136800684Y-112688777D01*
X136886375Y-112971264D01*
X137025531Y-113231606D01*
X137212803Y-113459797D01*
X137440994Y-113647069D01*
X137701336Y-113786225D01*
X137983823Y-113871916D01*
X138203981Y-113893600D01*
X138213148Y-113893600D01*
X138232454Y-113957246D01*
X138303026Y-114089276D01*
X138374201Y-114176002D01*
X138398000Y-114205001D01*
X138426998Y-114228799D01*
X146382256Y-122184059D01*
X146264223Y-122195684D01*
X145981736Y-122281375D01*
X145721394Y-122420531D01*
X145493203Y-122607803D01*
X145305931Y-122835995D01*
X145288000Y-122869541D01*
X145270069Y-122835994D01*
X145082797Y-122607803D01*
X144854605Y-122420531D01*
X144594263Y-122281375D01*
X144311776Y-122195684D01*
X144018000Y-122166749D01*
X143724223Y-122195684D01*
X143441736Y-122281375D01*
X143181394Y-122420531D01*
X142953203Y-122607803D01*
X142765931Y-122835995D01*
X142748000Y-122869541D01*
X142730069Y-122835994D01*
X142542797Y-122607803D01*
X142314605Y-122420531D01*
X142054263Y-122281375D01*
X141771776Y-122195684D01*
X141478000Y-122166749D01*
X141184223Y-122195684D01*
X140901736Y-122281375D01*
X140641394Y-122420531D01*
X140413203Y-122607803D01*
X140225931Y-122835995D01*
X140208000Y-122869541D01*
X140190069Y-122835994D01*
X140002797Y-122607803D01*
X139774605Y-122420531D01*
X139514263Y-122281375D01*
X139231776Y-122195684D01*
X138938000Y-122166749D01*
X138644223Y-122195684D01*
X138361736Y-122281375D01*
X138101394Y-122420531D01*
X137873203Y-122607803D01*
X137685931Y-122835995D01*
X137546775Y-123096337D01*
X137461084Y-123378824D01*
X137439400Y-123598982D01*
X137439400Y-124051019D01*
X137461084Y-124271177D01*
X137546775Y-124553664D01*
X137685931Y-124814006D01*
X137873203Y-125042197D01*
X138101395Y-125229469D01*
X138361737Y-125368625D01*
X138644224Y-125454316D01*
X138938000Y-125483251D01*
X139231777Y-125454316D01*
X139514264Y-125368625D01*
X139774606Y-125229469D01*
X140002797Y-125042197D01*
X140190069Y-124814006D01*
X140208000Y-124780459D01*
X140225931Y-124814006D01*
X140413203Y-125042197D01*
X140641395Y-125229469D01*
X140901737Y-125368625D01*
X141184224Y-125454316D01*
X141478000Y-125483251D01*
X141771777Y-125454316D01*
X142054264Y-125368625D01*
X142314606Y-125229469D01*
X142542797Y-125042197D01*
X142730069Y-124814006D01*
X142748000Y-124780459D01*
X142765931Y-124814006D01*
X142953203Y-125042197D01*
X143181395Y-125229469D01*
X143441737Y-125368625D01*
X143724224Y-125454316D01*
X144018000Y-125483251D01*
X144311777Y-125454316D01*
X144594264Y-125368625D01*
X144854606Y-125229469D01*
X145082797Y-125042197D01*
X145270069Y-124814006D01*
X145288000Y-124780459D01*
X145305931Y-124814006D01*
X145493203Y-125042197D01*
X145721395Y-125229469D01*
X145981737Y-125368625D01*
X146264224Y-125454316D01*
X146558000Y-125483251D01*
X146851777Y-125454316D01*
X147134264Y-125368625D01*
X147394606Y-125229469D01*
X147622797Y-125042197D01*
X147810069Y-124814006D01*
X147828000Y-124780459D01*
X147845931Y-124814006D01*
X148033203Y-125042197D01*
X148261395Y-125229469D01*
X148521737Y-125368625D01*
X148804224Y-125454316D01*
X149098000Y-125483251D01*
X149391777Y-125454316D01*
X149674264Y-125368625D01*
X149934606Y-125229469D01*
X150162797Y-125042197D01*
X150350069Y-124814006D01*
X150371424Y-124774053D01*
X150519514Y-124976729D01*
X150735965Y-125175733D01*
X150987081Y-125328686D01*
X151263211Y-125429709D01*
X151278974Y-125432358D01*
X151511000Y-125311217D01*
X151511000Y-123952000D01*
X151765000Y-123952000D01*
X151765000Y-125311217D01*
X151997026Y-125432358D01*
X152012789Y-125429709D01*
X152288919Y-125328686D01*
X152540035Y-125175733D01*
X152756486Y-124976729D01*
X152908000Y-124769367D01*
X153059514Y-124976729D01*
X153275965Y-125175733D01*
X153527081Y-125328686D01*
X153803211Y-125429709D01*
X153818974Y-125432358D01*
X154051000Y-125311217D01*
X154051000Y-123952000D01*
X151765000Y-123952000D01*
X151511000Y-123952000D01*
X151491000Y-123952000D01*
X151491000Y-123698000D01*
X151511000Y-123698000D01*
X151511000Y-122338783D01*
X151765000Y-122338783D01*
X151765000Y-123698000D01*
X154051000Y-123698000D01*
X154051000Y-122338783D01*
X154305000Y-122338783D01*
X154305000Y-123698000D01*
X154325000Y-123698000D01*
X154325000Y-123952000D01*
X154305000Y-123952000D01*
X154305000Y-125311217D01*
X154537026Y-125432358D01*
X154552789Y-125429709D01*
X154828919Y-125328686D01*
X155080035Y-125175733D01*
X155296486Y-124976729D01*
X155444576Y-124774053D01*
X155465931Y-124814006D01*
X155653203Y-125042197D01*
X155881395Y-125229469D01*
X156141737Y-125368625D01*
X156424224Y-125454316D01*
X156718000Y-125483251D01*
X157011777Y-125454316D01*
X157294264Y-125368625D01*
X157554606Y-125229469D01*
X157782797Y-125042197D01*
X157970069Y-124814006D01*
X158109225Y-124553663D01*
X158194916Y-124271176D01*
X158216600Y-124051018D01*
X158216600Y-123598981D01*
X158194916Y-123378823D01*
X158109225Y-123096336D01*
X157970069Y-122835994D01*
X157782797Y-122607803D01*
X157554605Y-122420531D01*
X157294263Y-122281375D01*
X157011776Y-122195684D01*
X156718000Y-122166749D01*
X156424223Y-122195684D01*
X156141736Y-122281375D01*
X155881394Y-122420531D01*
X155653203Y-122607803D01*
X155465931Y-122835995D01*
X155444576Y-122875947D01*
X155296486Y-122673271D01*
X155080035Y-122474267D01*
X154828919Y-122321314D01*
X154552789Y-122220291D01*
X154537026Y-122217642D01*
X154305000Y-122338783D01*
X154051000Y-122338783D01*
X153818974Y-122217642D01*
X153803211Y-122220291D01*
X153527081Y-122321314D01*
X153275965Y-122474267D01*
X153059514Y-122673271D01*
X152908000Y-122880633D01*
X152756486Y-122673271D01*
X152540035Y-122474267D01*
X152288919Y-122321314D01*
X152012789Y-122220291D01*
X151997026Y-122217642D01*
X151765000Y-122338783D01*
X151511000Y-122338783D01*
X151278974Y-122217642D01*
X151263211Y-122220291D01*
X150987081Y-122321314D01*
X150735965Y-122474267D01*
X150519514Y-122673271D01*
X150371424Y-122875947D01*
X150350069Y-122835994D01*
X150162797Y-122607803D01*
X149934605Y-122420531D01*
X149674263Y-122281375D01*
X149391776Y-122195684D01*
X149098000Y-122166749D01*
X148804223Y-122195684D01*
X148721100Y-122220899D01*
X148548204Y-122048002D01*
X148524401Y-122018999D01*
X148408676Y-121924026D01*
X148276647Y-121853454D01*
X148168430Y-121820627D01*
X143647684Y-117299882D01*
X148272500Y-117299882D01*
X148272500Y-117650118D01*
X148340828Y-117993623D01*
X148474857Y-118317199D01*
X148669437Y-118608409D01*
X148917091Y-118856063D01*
X149208301Y-119050643D01*
X149531877Y-119184672D01*
X149875382Y-119253000D01*
X150225618Y-119253000D01*
X150569123Y-119184672D01*
X150892699Y-119050643D01*
X151183909Y-118856063D01*
X151431563Y-118608409D01*
X151626143Y-118317199D01*
X151760172Y-117993623D01*
X151828500Y-117650118D01*
X151828500Y-117299882D01*
X151760172Y-116956377D01*
X151626143Y-116632801D01*
X151431563Y-116341591D01*
X151183909Y-116093937D01*
X150892699Y-115899357D01*
X150569123Y-115765328D01*
X150225618Y-115697000D01*
X149875382Y-115697000D01*
X149531877Y-115765328D01*
X149208301Y-115899357D01*
X148917091Y-116093937D01*
X148669437Y-116341591D01*
X148474857Y-116632801D01*
X148340828Y-116956377D01*
X148272500Y-117299882D01*
X143647684Y-117299882D01*
X140143484Y-113795683D01*
X140174664Y-113786225D01*
X140435006Y-113647069D01*
X140663197Y-113459797D01*
X140670226Y-113451231D01*
X145681374Y-113451231D01*
X145763727Y-113704289D01*
X146034418Y-113834086D01*
X146325230Y-113908580D01*
X146624988Y-113924908D01*
X146922171Y-113882443D01*
X147205359Y-113782816D01*
X147352273Y-113704289D01*
X147434626Y-113451231D01*
X146558000Y-112574605D01*
X145681374Y-113451231D01*
X140670226Y-113451231D01*
X140850469Y-113231606D01*
X140989625Y-112971264D01*
X141075316Y-112688777D01*
X141097653Y-112461988D01*
X145028092Y-112461988D01*
X145070557Y-112759171D01*
X145170184Y-113042359D01*
X145248711Y-113189273D01*
X145501769Y-113271626D01*
X146378395Y-112395000D01*
X146737605Y-112395000D01*
X147614231Y-113271626D01*
X147867289Y-113189273D01*
X147997086Y-112918582D01*
X148071580Y-112627770D01*
X148087908Y-112328012D01*
X148045443Y-112030829D01*
X147945816Y-111747641D01*
X147867289Y-111600727D01*
X147614231Y-111518374D01*
X146737605Y-112395000D01*
X146378395Y-112395000D01*
X145501769Y-111518374D01*
X145248711Y-111600727D01*
X145118914Y-111871418D01*
X145044420Y-112162230D01*
X145028092Y-112461988D01*
X141097653Y-112461988D01*
X141104251Y-112395000D01*
X141088376Y-112233825D01*
X145238639Y-108083563D01*
X145374232Y-108286493D01*
X145586507Y-108498768D01*
X145715562Y-108585000D01*
X145586507Y-108671232D01*
X145374232Y-108883507D01*
X145207449Y-109133115D01*
X145092566Y-109410466D01*
X145034000Y-109704899D01*
X145034000Y-110005101D01*
X145092566Y-110299534D01*
X145207449Y-110576885D01*
X145374232Y-110826493D01*
X145586507Y-111038768D01*
X145744622Y-111144417D01*
X145681374Y-111338769D01*
X146558000Y-112215395D01*
X147434626Y-111338769D01*
X147371378Y-111144417D01*
X147529493Y-111038768D01*
X147741768Y-110826493D01*
X147908551Y-110576885D01*
X148023434Y-110299534D01*
X148082000Y-110005101D01*
X148082000Y-109704899D01*
X148023434Y-109410466D01*
X147908551Y-109133115D01*
X147741768Y-108883507D01*
X147529493Y-108671232D01*
X147400438Y-108585000D01*
X147529493Y-108498768D01*
X147535350Y-108492911D01*
X153243000Y-108492911D01*
X153243000Y-108677089D01*
X153278932Y-108857729D01*
X153349414Y-109027889D01*
X153451738Y-109181028D01*
X153581972Y-109311262D01*
X153735111Y-109413586D01*
X153905271Y-109484068D01*
X154026352Y-109508153D01*
X157424201Y-112906003D01*
X157447999Y-112935001D01*
X157563724Y-113029974D01*
X157695753Y-113100546D01*
X157839014Y-113144003D01*
X157950667Y-113155000D01*
X157950675Y-113155000D01*
X157988000Y-113158676D01*
X158025325Y-113155000D01*
X158712465Y-113155000D01*
X158815111Y-113223586D01*
X158985271Y-113294068D01*
X159165911Y-113330000D01*
X159350089Y-113330000D01*
X159530729Y-113294068D01*
X159700889Y-113223586D01*
X159854028Y-113121262D01*
X159984262Y-112991028D01*
X160086586Y-112837889D01*
X160157068Y-112667729D01*
X160193000Y-112487089D01*
X160193000Y-112302911D01*
X160157068Y-112122271D01*
X160086586Y-111952111D01*
X159984262Y-111798972D01*
X159854028Y-111668738D01*
X159700889Y-111566414D01*
X159530729Y-111495932D01*
X159350089Y-111460000D01*
X159165911Y-111460000D01*
X158985271Y-111495932D01*
X158815111Y-111566414D01*
X158712465Y-111635000D01*
X158302802Y-111635000D01*
X155101153Y-108433352D01*
X155077068Y-108312271D01*
X155006586Y-108142111D01*
X154904262Y-107988972D01*
X154774028Y-107858738D01*
X154620889Y-107756414D01*
X154450729Y-107685932D01*
X154270089Y-107650000D01*
X154085911Y-107650000D01*
X153905271Y-107685932D01*
X153735111Y-107756414D01*
X153581972Y-107858738D01*
X153451738Y-107988972D01*
X153349414Y-108142111D01*
X153278932Y-108312271D01*
X153243000Y-108492911D01*
X147535350Y-108492911D01*
X147741768Y-108286493D01*
X147908551Y-108036885D01*
X148023434Y-107759534D01*
X148082000Y-107465101D01*
X148082000Y-107164899D01*
X148023434Y-106870466D01*
X147908551Y-106593115D01*
X147866312Y-106529899D01*
X162814000Y-106529899D01*
X162814000Y-106830101D01*
X162872566Y-107124534D01*
X162987449Y-107401885D01*
X163154232Y-107651493D01*
X163366507Y-107863768D01*
X163616115Y-108030551D01*
X163893466Y-108145434D01*
X164187899Y-108204000D01*
X164488101Y-108204000D01*
X164782534Y-108145434D01*
X165059885Y-108030551D01*
X165309493Y-107863768D01*
X165437030Y-107736231D01*
X168541374Y-107736231D01*
X168623727Y-107989289D01*
X168894418Y-108119086D01*
X169185230Y-108193580D01*
X169484988Y-108209908D01*
X169782171Y-108167443D01*
X170065359Y-108067816D01*
X170212273Y-107989289D01*
X170294626Y-107736231D01*
X169418000Y-106859605D01*
X168541374Y-107736231D01*
X165437030Y-107736231D01*
X165521768Y-107651493D01*
X165688551Y-107401885D01*
X165803434Y-107124534D01*
X165862000Y-106830101D01*
X165862000Y-106746988D01*
X167888092Y-106746988D01*
X167930557Y-107044171D01*
X168030184Y-107327359D01*
X168108711Y-107474273D01*
X168361769Y-107556626D01*
X169238395Y-106680000D01*
X169597605Y-106680000D01*
X170474231Y-107556626D01*
X170727289Y-107474273D01*
X170857086Y-107203582D01*
X170931580Y-106912770D01*
X170947908Y-106613012D01*
X170905443Y-106315829D01*
X170805816Y-106032641D01*
X170727289Y-105885727D01*
X170474231Y-105803374D01*
X169597605Y-106680000D01*
X169238395Y-106680000D01*
X168361769Y-105803374D01*
X168108711Y-105885727D01*
X167978914Y-106156418D01*
X167904420Y-106447230D01*
X167888092Y-106746988D01*
X165862000Y-106746988D01*
X165862000Y-106529899D01*
X165803434Y-106235466D01*
X165688551Y-105958115D01*
X165521768Y-105708507D01*
X165437030Y-105623769D01*
X168541374Y-105623769D01*
X169418000Y-106500395D01*
X170294626Y-105623769D01*
X170212273Y-105370711D01*
X169941582Y-105240914D01*
X169650770Y-105166420D01*
X169351012Y-105150092D01*
X169053829Y-105192557D01*
X168770641Y-105292184D01*
X168623727Y-105370711D01*
X168541374Y-105623769D01*
X165437030Y-105623769D01*
X165309493Y-105496232D01*
X165059885Y-105329449D01*
X164782534Y-105214566D01*
X164488101Y-105156000D01*
X164187899Y-105156000D01*
X163893466Y-105214566D01*
X163616115Y-105329449D01*
X163366507Y-105496232D01*
X163154232Y-105708507D01*
X162987449Y-105958115D01*
X162872566Y-106235466D01*
X162814000Y-106529899D01*
X147866312Y-106529899D01*
X147741768Y-106343507D01*
X147529493Y-106131232D01*
X147318000Y-105989917D01*
X147318000Y-102059882D01*
X148272500Y-102059882D01*
X148272500Y-102410118D01*
X148340828Y-102753623D01*
X148474857Y-103077199D01*
X148669437Y-103368409D01*
X148917091Y-103616063D01*
X149208301Y-103810643D01*
X149531877Y-103944672D01*
X149875382Y-104013000D01*
X150225618Y-104013000D01*
X150569123Y-103944672D01*
X150892699Y-103810643D01*
X151183909Y-103616063D01*
X151431563Y-103368409D01*
X151626143Y-103077199D01*
X151760172Y-102753623D01*
X151828500Y-102410118D01*
X151828500Y-102059882D01*
X161607500Y-102059882D01*
X161607500Y-102410118D01*
X161675828Y-102753623D01*
X161809857Y-103077199D01*
X162004437Y-103368409D01*
X162252091Y-103616063D01*
X162543301Y-103810643D01*
X162866877Y-103944672D01*
X163210382Y-104013000D01*
X163560618Y-104013000D01*
X163904123Y-103944672D01*
X164227699Y-103810643D01*
X164518909Y-103616063D01*
X164766563Y-103368409D01*
X164961143Y-103077199D01*
X165095172Y-102753623D01*
X165163500Y-102410118D01*
X165163500Y-102059882D01*
X165095172Y-101716377D01*
X164961143Y-101392801D01*
X164766563Y-101101591D01*
X164518909Y-100853937D01*
X164227699Y-100659357D01*
X163904123Y-100525328D01*
X163560618Y-100457000D01*
X163210382Y-100457000D01*
X162866877Y-100525328D01*
X162543301Y-100659357D01*
X162252091Y-100853937D01*
X162004437Y-101101591D01*
X161809857Y-101392801D01*
X161675828Y-101716377D01*
X161607500Y-102059882D01*
X151828500Y-102059882D01*
X151760172Y-101716377D01*
X151626143Y-101392801D01*
X151431563Y-101101591D01*
X151183909Y-100853937D01*
X151030199Y-100751231D01*
X153301374Y-100751231D01*
X153383727Y-101004289D01*
X153654418Y-101134086D01*
X153945230Y-101208580D01*
X154244988Y-101224908D01*
X154542171Y-101182443D01*
X154825359Y-101082816D01*
X154972273Y-101004289D01*
X155054626Y-100751231D01*
X154178000Y-99874605D01*
X153301374Y-100751231D01*
X151030199Y-100751231D01*
X150892699Y-100659357D01*
X150569123Y-100525328D01*
X150225618Y-100457000D01*
X149875382Y-100457000D01*
X149531877Y-100525328D01*
X149208301Y-100659357D01*
X148917091Y-100853937D01*
X148669437Y-101101591D01*
X148474857Y-101392801D01*
X148340828Y-101716377D01*
X148272500Y-102059882D01*
X147318000Y-102059882D01*
X147318000Y-100034730D01*
X147590742Y-99761988D01*
X152648092Y-99761988D01*
X152690557Y-100059171D01*
X152790184Y-100342359D01*
X152868711Y-100489273D01*
X153121769Y-100571626D01*
X153998395Y-99695000D01*
X153121769Y-98818374D01*
X152868711Y-98900727D01*
X152738914Y-99171418D01*
X152664420Y-99462230D01*
X152648092Y-99761988D01*
X147590742Y-99761988D01*
X148713962Y-98638769D01*
X153301374Y-98638769D01*
X154178000Y-99515395D01*
X155054626Y-98638769D01*
X154972273Y-98385711D01*
X154701582Y-98255914D01*
X154410770Y-98181420D01*
X154111012Y-98165092D01*
X153813829Y-98207557D01*
X153530641Y-98307184D01*
X153383727Y-98385711D01*
X153301374Y-98638769D01*
X148713962Y-98638769D01*
X149437732Y-97915000D01*
X156403199Y-97915000D01*
X156659199Y-98171000D01*
X156567899Y-98171000D01*
X156273466Y-98229566D01*
X155996115Y-98344449D01*
X155746507Y-98511232D01*
X155534232Y-98723507D01*
X155428583Y-98881622D01*
X155234231Y-98818374D01*
X154357605Y-99695000D01*
X155234231Y-100571626D01*
X155428583Y-100508378D01*
X155534232Y-100666493D01*
X155746507Y-100878768D01*
X155996115Y-101045551D01*
X156273466Y-101160434D01*
X156567899Y-101219000D01*
X156868101Y-101219000D01*
X157162534Y-101160434D01*
X157439885Y-101045551D01*
X157689493Y-100878768D01*
X157901768Y-100666493D01*
X157988000Y-100537438D01*
X158074232Y-100666493D01*
X158286507Y-100878768D01*
X158536115Y-101045551D01*
X158813466Y-101160434D01*
X159107899Y-101219000D01*
X159408101Y-101219000D01*
X159702534Y-101160434D01*
X159979885Y-101045551D01*
X160229493Y-100878768D01*
X160441768Y-100666493D01*
X160608551Y-100416885D01*
X160723434Y-100139534D01*
X160782000Y-99845101D01*
X160782000Y-99544899D01*
X160723434Y-99250466D01*
X160608551Y-98973115D01*
X160441768Y-98723507D01*
X160229493Y-98511232D01*
X159979885Y-98344449D01*
X159702534Y-98229566D01*
X159408101Y-98171000D01*
X159107899Y-98171000D01*
X158858425Y-98220623D01*
X158102792Y-97464990D01*
X161718989Y-97464990D01*
X166118000Y-101864003D01*
X166118001Y-102959464D01*
X166049414Y-103062111D01*
X165978932Y-103232271D01*
X165943000Y-103412911D01*
X165943000Y-103597089D01*
X165978932Y-103777729D01*
X166049414Y-103947889D01*
X166151738Y-104101028D01*
X166281972Y-104231262D01*
X166435111Y-104333586D01*
X166605271Y-104404068D01*
X166785911Y-104440000D01*
X166970089Y-104440000D01*
X167150729Y-104404068D01*
X167320889Y-104333586D01*
X167474028Y-104231262D01*
X167604262Y-104101028D01*
X167706586Y-103947889D01*
X167777068Y-103777729D01*
X167813000Y-103597089D01*
X167813000Y-103412911D01*
X167777068Y-103232271D01*
X167706586Y-103062111D01*
X167638000Y-102959465D01*
X167638000Y-101586522D01*
X167641676Y-101549199D01*
X167638000Y-101511876D01*
X167638000Y-101511867D01*
X167627003Y-101400214D01*
X167583546Y-101256953D01*
X167512974Y-101124924D01*
X167478417Y-101082816D01*
X167441799Y-101038196D01*
X167441795Y-101038192D01*
X167418001Y-101009199D01*
X167389009Y-100985406D01*
X162597594Y-96193993D01*
X162573791Y-96164989D01*
X162458066Y-96070016D01*
X162326037Y-95999444D01*
X162182776Y-95955987D01*
X162071123Y-95944990D01*
X162071112Y-95944990D01*
X162033790Y-95941314D01*
X161996468Y-95944990D01*
X152772792Y-95944990D01*
X133493997Y-76666196D01*
X133586069Y-76554006D01*
X133604000Y-76520459D01*
X133621931Y-76554006D01*
X133809203Y-76782197D01*
X134037395Y-76969469D01*
X134297737Y-77108625D01*
X134580224Y-77194316D01*
X134874000Y-77223251D01*
X135167777Y-77194316D01*
X135450264Y-77108625D01*
X135710606Y-76969469D01*
X135938797Y-76782197D01*
X136126069Y-76554006D01*
X136147424Y-76514053D01*
X136295514Y-76716729D01*
X136511965Y-76915733D01*
X136763081Y-77068686D01*
X137039211Y-77169709D01*
X137054974Y-77172358D01*
X137287000Y-77051217D01*
X137287000Y-75692000D01*
X137267000Y-75692000D01*
X137267000Y-75438000D01*
X137287000Y-75438000D01*
X137287000Y-74078783D01*
X137541000Y-74078783D01*
X137541000Y-75438000D01*
X137561000Y-75438000D01*
X137561000Y-75692000D01*
X137541000Y-75692000D01*
X137541000Y-77051217D01*
X137773026Y-77172358D01*
X137788789Y-77169709D01*
X138064919Y-77068686D01*
X138316035Y-76915733D01*
X138532486Y-76716729D01*
X138680576Y-76514053D01*
X138701931Y-76554006D01*
X138889203Y-76782197D01*
X139117395Y-76969469D01*
X139377737Y-77108625D01*
X139660224Y-77194316D01*
X139954000Y-77223251D01*
X140247777Y-77194316D01*
X140530264Y-77108625D01*
X140790606Y-76969469D01*
X141018797Y-76782197D01*
X141206069Y-76554006D01*
X141224000Y-76520459D01*
X141241931Y-76554006D01*
X141429203Y-76782197D01*
X141657395Y-76969469D01*
X141758143Y-77023320D01*
X141788454Y-77123246D01*
X141859026Y-77255276D01*
X141920354Y-77330003D01*
X141954000Y-77371001D01*
X141982998Y-77394799D01*
X153364201Y-88776003D01*
X153387999Y-88805001D01*
X153503724Y-88899974D01*
X153635753Y-88970546D01*
X153779014Y-89014003D01*
X153890667Y-89025000D01*
X153890677Y-89025000D01*
X153928000Y-89028676D01*
X153965323Y-89025000D01*
X165600405Y-89025000D01*
X165637294Y-89094014D01*
X165822866Y-89320134D01*
X166048986Y-89505706D01*
X166306966Y-89643599D01*
X166586889Y-89728513D01*
X166805050Y-89750000D01*
X166950950Y-89750000D01*
X167169111Y-89728513D01*
X167449034Y-89643599D01*
X167707014Y-89505706D01*
X167933134Y-89320134D01*
X168118706Y-89094014D01*
X168148000Y-89039209D01*
X168177294Y-89094014D01*
X168362866Y-89320134D01*
X168588986Y-89505706D01*
X168846966Y-89643599D01*
X169126889Y-89728513D01*
X169345050Y-89750000D01*
X169490950Y-89750000D01*
X169709111Y-89728513D01*
X169989034Y-89643599D01*
X170247014Y-89505706D01*
X170473134Y-89320134D01*
X170658706Y-89094014D01*
X170796599Y-88836034D01*
X170881513Y-88556111D01*
X170910185Y-88265000D01*
X170881513Y-87973889D01*
X170796599Y-87693966D01*
X170658706Y-87435986D01*
X170473134Y-87209866D01*
X170247014Y-87024294D01*
X170192209Y-86995000D01*
X170247014Y-86965706D01*
X170473134Y-86780134D01*
X170658706Y-86554014D01*
X170796599Y-86296034D01*
X170881513Y-86016111D01*
X170910185Y-85725000D01*
X170881513Y-85433889D01*
X170796599Y-85153966D01*
X170658706Y-84895986D01*
X170473134Y-84669866D01*
X170247014Y-84484294D01*
X170192209Y-84455000D01*
X170247014Y-84425706D01*
X170473134Y-84240134D01*
X170658706Y-84014014D01*
X170796599Y-83756034D01*
X170881513Y-83476111D01*
X170910185Y-83185000D01*
X170881513Y-82893889D01*
X170796599Y-82613966D01*
X170658706Y-82355986D01*
X170473134Y-82129866D01*
X170443313Y-82105393D01*
X170512180Y-82084502D01*
X170622494Y-82025537D01*
X170719185Y-81946185D01*
X170730543Y-81932345D01*
X171452001Y-82653803D01*
X171452000Y-107177998D01*
X165843435Y-112786564D01*
X165803434Y-112585466D01*
X165688551Y-112308115D01*
X165521768Y-112058507D01*
X165309493Y-111846232D01*
X165059885Y-111679449D01*
X164782534Y-111564566D01*
X164488101Y-111506000D01*
X164187899Y-111506000D01*
X163893466Y-111564566D01*
X163616115Y-111679449D01*
X163366507Y-111846232D01*
X163154232Y-112058507D01*
X162987449Y-112308115D01*
X162872566Y-112585466D01*
X162814000Y-112879899D01*
X162814000Y-113180101D01*
X162872566Y-113474534D01*
X162987449Y-113751885D01*
X163154232Y-114001493D01*
X163366507Y-114213768D01*
X163612596Y-114378200D01*
X157822122Y-114378200D01*
X157784799Y-114374524D01*
X157747476Y-114378200D01*
X157747467Y-114378200D01*
X157635814Y-114389197D01*
X157492553Y-114432654D01*
X157360524Y-114503226D01*
X157360522Y-114503227D01*
X157360523Y-114503227D01*
X157273796Y-114574401D01*
X157273792Y-114574405D01*
X157244799Y-114598199D01*
X157221005Y-114627192D01*
X154026351Y-117821847D01*
X153905271Y-117845932D01*
X153735111Y-117916414D01*
X153581972Y-118018738D01*
X153451738Y-118148972D01*
X153349414Y-118302111D01*
X153278932Y-118472271D01*
X153243000Y-118652911D01*
X153243000Y-118837089D01*
X153278932Y-119017729D01*
X153349414Y-119187889D01*
X153451738Y-119341028D01*
X153581972Y-119471262D01*
X153735111Y-119573586D01*
X153905271Y-119644068D01*
X154085911Y-119680000D01*
X154270089Y-119680000D01*
X154450729Y-119644068D01*
X154620889Y-119573586D01*
X154774028Y-119471262D01*
X154904262Y-119341028D01*
X155006586Y-119187889D01*
X155077068Y-119017729D01*
X155101153Y-118896649D01*
X158099603Y-115898200D01*
X162546094Y-115898200D01*
X162543301Y-115899357D01*
X162252091Y-116093937D01*
X162004437Y-116341591D01*
X161809857Y-116632801D01*
X161675828Y-116956377D01*
X161607500Y-117299882D01*
X161607500Y-117650118D01*
X161675828Y-117993623D01*
X161809857Y-118317199D01*
X162004437Y-118608409D01*
X162252091Y-118856063D01*
X162543301Y-119050643D01*
X162866877Y-119184672D01*
X163210382Y-119253000D01*
X163560618Y-119253000D01*
X163904123Y-119184672D01*
X164227699Y-119050643D01*
X164518909Y-118856063D01*
X164766563Y-118608409D01*
X164961143Y-118317199D01*
X165095172Y-117993623D01*
X165163500Y-117650118D01*
X165163500Y-117299882D01*
X165102165Y-116991532D01*
X165165103Y-117033586D01*
X165335263Y-117104068D01*
X165515903Y-117140000D01*
X165700081Y-117140000D01*
X165880721Y-117104068D01*
X166050881Y-117033586D01*
X166153527Y-116965000D01*
X166715599Y-116965000D01*
X171920992Y-122170394D01*
X171664223Y-122195684D01*
X171381736Y-122281375D01*
X171121394Y-122420531D01*
X170893203Y-122607803D01*
X170705931Y-122835995D01*
X170688000Y-122869541D01*
X170670069Y-122835994D01*
X170482797Y-122607803D01*
X170254605Y-122420531D01*
X169994263Y-122281375D01*
X169711776Y-122195684D01*
X169418000Y-122166749D01*
X169124223Y-122195684D01*
X168841736Y-122281375D01*
X168581394Y-122420531D01*
X168353203Y-122607803D01*
X168165931Y-122835995D01*
X168148000Y-122869541D01*
X168130069Y-122835994D01*
X167942797Y-122607803D01*
X167714605Y-122420531D01*
X167454263Y-122281375D01*
X167171776Y-122195684D01*
X166878000Y-122166749D01*
X166584223Y-122195684D01*
X166301736Y-122281375D01*
X166041394Y-122420531D01*
X165813203Y-122607803D01*
X165625931Y-122835995D01*
X165608000Y-122869541D01*
X165590069Y-122835994D01*
X165402797Y-122607803D01*
X165174605Y-122420531D01*
X164914263Y-122281375D01*
X164631776Y-122195684D01*
X164338000Y-122166749D01*
X164044223Y-122195684D01*
X163761736Y-122281375D01*
X163501394Y-122420531D01*
X163273203Y-122607803D01*
X163085931Y-122835995D01*
X163068000Y-122869541D01*
X163050069Y-122835994D01*
X162862797Y-122607803D01*
X162634605Y-122420531D01*
X162374263Y-122281375D01*
X162091776Y-122195684D01*
X161798000Y-122166749D01*
X161504223Y-122195684D01*
X161221736Y-122281375D01*
X160961394Y-122420531D01*
X160733203Y-122607803D01*
X160545931Y-122835995D01*
X160406775Y-123096337D01*
X160321084Y-123378824D01*
X160299400Y-123598982D01*
X160299400Y-124051019D01*
X160321084Y-124271177D01*
X160406775Y-124553664D01*
X160545931Y-124814006D01*
X160733203Y-125042197D01*
X160961395Y-125229469D01*
X161221737Y-125368625D01*
X161504224Y-125454316D01*
X161798000Y-125483251D01*
X162091777Y-125454316D01*
X162374264Y-125368625D01*
X162634606Y-125229469D01*
X162862797Y-125042197D01*
X163050069Y-124814006D01*
X163068000Y-124780459D01*
X163085931Y-124814006D01*
X163273203Y-125042197D01*
X163501395Y-125229469D01*
X163761737Y-125368625D01*
X164044224Y-125454316D01*
X164338000Y-125483251D01*
X164631777Y-125454316D01*
X164914264Y-125368625D01*
X165174606Y-125229469D01*
X165402797Y-125042197D01*
X165590069Y-124814006D01*
X165608000Y-124780459D01*
X165625931Y-124814006D01*
X165813203Y-125042197D01*
X166041395Y-125229469D01*
X166301737Y-125368625D01*
X166584224Y-125454316D01*
X166878000Y-125483251D01*
X167171777Y-125454316D01*
X167454264Y-125368625D01*
X167714606Y-125229469D01*
X167942797Y-125042197D01*
X168130069Y-124814006D01*
X168148000Y-124780459D01*
X168165931Y-124814006D01*
X168353203Y-125042197D01*
X168581395Y-125229469D01*
X168841737Y-125368625D01*
X169124224Y-125454316D01*
X169418000Y-125483251D01*
X169711777Y-125454316D01*
X169994264Y-125368625D01*
X170254606Y-125229469D01*
X170482797Y-125042197D01*
X170670069Y-124814006D01*
X170688000Y-124780459D01*
X170705931Y-124814006D01*
X170893203Y-125042197D01*
X171121395Y-125229469D01*
X171381737Y-125368625D01*
X171664224Y-125454316D01*
X171958000Y-125483251D01*
X172251777Y-125454316D01*
X172534264Y-125368625D01*
X172794606Y-125229469D01*
X173022797Y-125042197D01*
X173210069Y-124814006D01*
X173228000Y-124780459D01*
X173245931Y-124814006D01*
X173433203Y-125042197D01*
X173661395Y-125229469D01*
X173921737Y-125368625D01*
X174204224Y-125454316D01*
X174498000Y-125483251D01*
X174791777Y-125454316D01*
X175074264Y-125368625D01*
X175334606Y-125229469D01*
X175562797Y-125042197D01*
X175750069Y-124814006D01*
X175889225Y-124553663D01*
X175974916Y-124271176D01*
X175996600Y-124051018D01*
X175996600Y-123598981D01*
X175974916Y-123378823D01*
X175889225Y-123096336D01*
X175750069Y-122835994D01*
X175562797Y-122607803D01*
X175334605Y-122420531D01*
X175074263Y-122281375D01*
X174791776Y-122195684D01*
X174498000Y-122166749D01*
X174204223Y-122195684D01*
X174121101Y-122220899D01*
X167594204Y-115694003D01*
X167570401Y-115664999D01*
X167454676Y-115570026D01*
X167322647Y-115499454D01*
X167179386Y-115455997D01*
X167067733Y-115445000D01*
X167067722Y-115445000D01*
X167030400Y-115441324D01*
X166993078Y-115445000D01*
X166153527Y-115445000D01*
X166050881Y-115376414D01*
X165880721Y-115305932D01*
X165700081Y-115270000D01*
X165515903Y-115270000D01*
X165508036Y-115271565D01*
X167894000Y-112885601D01*
X167894000Y-113180101D01*
X167952566Y-113474534D01*
X168067449Y-113751885D01*
X168234232Y-114001493D01*
X168446507Y-114213768D01*
X168696115Y-114380551D01*
X168973466Y-114495434D01*
X169267899Y-114554000D01*
X169568101Y-114554000D01*
X169862534Y-114495434D01*
X170139885Y-114380551D01*
X170389493Y-114213768D01*
X170601768Y-114001493D01*
X170768551Y-113751885D01*
X170883434Y-113474534D01*
X170942000Y-113180101D01*
X170942000Y-112879899D01*
X170883434Y-112585466D01*
X170768551Y-112308115D01*
X170601768Y-112058507D01*
X170389493Y-111846232D01*
X170139885Y-111679449D01*
X169862534Y-111564566D01*
X169568101Y-111506000D01*
X169273602Y-111506000D01*
X172723004Y-108056598D01*
X172752001Y-108032801D01*
X172846974Y-107917076D01*
X172917546Y-107785047D01*
X172961003Y-107641786D01*
X172972000Y-107530133D01*
X172972000Y-107530124D01*
X172975676Y-107492801D01*
X172972000Y-107455478D01*
X172972000Y-82376325D01*
X172975676Y-82339000D01*
X172972000Y-82301675D01*
X172972000Y-82301667D01*
X172961003Y-82190014D01*
X172917546Y-82046753D01*
X172846974Y-81914724D01*
X172752001Y-81798999D01*
X172723003Y-81775201D01*
X171081804Y-80134003D01*
X171058001Y-80104999D01*
X170942276Y-80010026D01*
X170906072Y-79990674D01*
X170906072Y-79795000D01*
X170893812Y-79670518D01*
X170857502Y-79550820D01*
X170798537Y-79440506D01*
X170719185Y-79343815D01*
X170622494Y-79264463D01*
X170512180Y-79205498D01*
X170392482Y-79169188D01*
X170268000Y-79156928D01*
X168568000Y-79156928D01*
X168443518Y-79169188D01*
X168323820Y-79205498D01*
X168213506Y-79264463D01*
X168116815Y-79343815D01*
X168037463Y-79440506D01*
X167978498Y-79550820D01*
X167955502Y-79626626D01*
X167759355Y-79449822D01*
X167509252Y-79300843D01*
X167234891Y-79203519D01*
X167005000Y-79324186D01*
X167005000Y-80518000D01*
X167025000Y-80518000D01*
X167025000Y-80772000D01*
X167005000Y-80772000D01*
X167005000Y-80792000D01*
X166751000Y-80792000D01*
X166751000Y-80772000D01*
X165557845Y-80772000D01*
X165436524Y-81001890D01*
X165454150Y-81060001D01*
X164557803Y-81060001D01*
X163785912Y-80288110D01*
X165436524Y-80288110D01*
X165557845Y-80518000D01*
X166751000Y-80518000D01*
X166751000Y-79324186D01*
X166521109Y-79203519D01*
X166246748Y-79300843D01*
X165996645Y-79449822D01*
X165780412Y-79644731D01*
X165606359Y-79878080D01*
X165481175Y-80140901D01*
X165436524Y-80288110D01*
X163785912Y-80288110D01*
X161091804Y-77594003D01*
X161068001Y-77564999D01*
X160952276Y-77470026D01*
X160820247Y-77399454D01*
X160676986Y-77355997D01*
X160565333Y-77345000D01*
X160565322Y-77345000D01*
X160528000Y-77341324D01*
X160490678Y-77345000D01*
X154242802Y-77345000D01*
X153697487Y-76799686D01*
X153718797Y-76782197D01*
X153906069Y-76554006D01*
X154045225Y-76293663D01*
X154130916Y-76011176D01*
X154152600Y-75791018D01*
X154152600Y-75338982D01*
X155219400Y-75338982D01*
X155219400Y-75791019D01*
X155241084Y-76011177D01*
X155326775Y-76293664D01*
X155465931Y-76554006D01*
X155653203Y-76782197D01*
X155881395Y-76969469D01*
X156141737Y-77108625D01*
X156424224Y-77194316D01*
X156718000Y-77223251D01*
X157011777Y-77194316D01*
X157294264Y-77108625D01*
X157554606Y-76969469D01*
X157782797Y-76782197D01*
X157970069Y-76554006D01*
X157988000Y-76520459D01*
X158005931Y-76554006D01*
X158193203Y-76782197D01*
X158421395Y-76969469D01*
X158681737Y-77108625D01*
X158964224Y-77194316D01*
X159258000Y-77223251D01*
X159551777Y-77194316D01*
X159834264Y-77108625D01*
X160094606Y-76969469D01*
X160322797Y-76782197D01*
X160510069Y-76554006D01*
X160528000Y-76520459D01*
X160545931Y-76554006D01*
X160733203Y-76782197D01*
X160961395Y-76969469D01*
X161221737Y-77108625D01*
X161504224Y-77194316D01*
X161798000Y-77223251D01*
X162091777Y-77194316D01*
X162374264Y-77108625D01*
X162634606Y-76969469D01*
X162862797Y-76782197D01*
X163050069Y-76554006D01*
X163068000Y-76520459D01*
X163085931Y-76554006D01*
X163273203Y-76782197D01*
X163501395Y-76969469D01*
X163761737Y-77108625D01*
X164044224Y-77194316D01*
X164338000Y-77223251D01*
X164631777Y-77194316D01*
X164914264Y-77108625D01*
X165174606Y-76969469D01*
X165402797Y-76782197D01*
X165590069Y-76554006D01*
X165608000Y-76520459D01*
X165625931Y-76554006D01*
X165813203Y-76782197D01*
X166041395Y-76969469D01*
X166301737Y-77108625D01*
X166584224Y-77194316D01*
X166878000Y-77223251D01*
X167171777Y-77194316D01*
X167454264Y-77108625D01*
X167714606Y-76969469D01*
X167942797Y-76782197D01*
X168130069Y-76554006D01*
X168148000Y-76520459D01*
X168165931Y-76554006D01*
X168353203Y-76782197D01*
X168581395Y-76969469D01*
X168680695Y-77022546D01*
X168712454Y-77127246D01*
X168783026Y-77259276D01*
X168841303Y-77330286D01*
X168878000Y-77375001D01*
X168906998Y-77398799D01*
X171034848Y-79526650D01*
X171058932Y-79647729D01*
X171129414Y-79817889D01*
X171231738Y-79971028D01*
X171361972Y-80101262D01*
X171515111Y-80203586D01*
X171685271Y-80274068D01*
X171865911Y-80310000D01*
X172050089Y-80310000D01*
X172230729Y-80274068D01*
X172400889Y-80203586D01*
X172554028Y-80101262D01*
X172684262Y-79971028D01*
X172786586Y-79817889D01*
X172857068Y-79647729D01*
X172893000Y-79467089D01*
X172893000Y-79282911D01*
X172857068Y-79102271D01*
X172786586Y-78932111D01*
X172684262Y-78778972D01*
X172554028Y-78648738D01*
X172400889Y-78546414D01*
X172230729Y-78475932D01*
X172109650Y-78451848D01*
X170459290Y-76801489D01*
X170482797Y-76782197D01*
X170670069Y-76554006D01*
X170688000Y-76520459D01*
X170705931Y-76554006D01*
X170893203Y-76782197D01*
X171121395Y-76969469D01*
X171381737Y-77108625D01*
X171664224Y-77194316D01*
X171958000Y-77223251D01*
X172251777Y-77194316D01*
X172534264Y-77108625D01*
X172794606Y-76969469D01*
X173022797Y-76782197D01*
X173210069Y-76554006D01*
X173228000Y-76520459D01*
X173245931Y-76554006D01*
X173433203Y-76782197D01*
X173661395Y-76969469D01*
X173921737Y-77108625D01*
X174204224Y-77194316D01*
X174498000Y-77223251D01*
X174791777Y-77194316D01*
X175074264Y-77108625D01*
X175334606Y-76969469D01*
X175562797Y-76782197D01*
X175750069Y-76554006D01*
X175889225Y-76293663D01*
X175974916Y-76011176D01*
X175996600Y-75791018D01*
X175996600Y-75338981D01*
X175974916Y-75118823D01*
X175889225Y-74836336D01*
X175750069Y-74575994D01*
X175562797Y-74347803D01*
X175334605Y-74160531D01*
X175074263Y-74021375D01*
X174791776Y-73935684D01*
X174498000Y-73906749D01*
X174204223Y-73935684D01*
X173921736Y-74021375D01*
X173661394Y-74160531D01*
X173433203Y-74347803D01*
X173245931Y-74575995D01*
X173228000Y-74609541D01*
X173210069Y-74575994D01*
X173022797Y-74347803D01*
X172794605Y-74160531D01*
X172534263Y-74021375D01*
X172251776Y-73935684D01*
X171958000Y-73906749D01*
X171664223Y-73935684D01*
X171381736Y-74021375D01*
X171121394Y-74160531D01*
X170893203Y-74347803D01*
X170705931Y-74575995D01*
X170688000Y-74609541D01*
X170670069Y-74575994D01*
X170482797Y-74347803D01*
X170254605Y-74160531D01*
X169994263Y-74021375D01*
X169711776Y-73935684D01*
X169418000Y-73906749D01*
X169124223Y-73935684D01*
X168841736Y-74021375D01*
X168581394Y-74160531D01*
X168353203Y-74347803D01*
X168165931Y-74575995D01*
X168148000Y-74609541D01*
X168130069Y-74575994D01*
X167942797Y-74347803D01*
X167714605Y-74160531D01*
X167454263Y-74021375D01*
X167171776Y-73935684D01*
X166878000Y-73906749D01*
X166584223Y-73935684D01*
X166301736Y-74021375D01*
X166041394Y-74160531D01*
X165813203Y-74347803D01*
X165625931Y-74575995D01*
X165608000Y-74609541D01*
X165590069Y-74575994D01*
X165402797Y-74347803D01*
X165174605Y-74160531D01*
X164914263Y-74021375D01*
X164631776Y-73935684D01*
X164338000Y-73906749D01*
X164044223Y-73935684D01*
X163761736Y-74021375D01*
X163501394Y-74160531D01*
X163273203Y-74347803D01*
X163085931Y-74575995D01*
X163068000Y-74609541D01*
X163050069Y-74575994D01*
X162862797Y-74347803D01*
X162634605Y-74160531D01*
X162374263Y-74021375D01*
X162091776Y-73935684D01*
X161798000Y-73906749D01*
X161504223Y-73935684D01*
X161221736Y-74021375D01*
X160961394Y-74160531D01*
X160733203Y-74347803D01*
X160545931Y-74575995D01*
X160528000Y-74609541D01*
X160510069Y-74575994D01*
X160322797Y-74347803D01*
X160094605Y-74160531D01*
X159834263Y-74021375D01*
X159551776Y-73935684D01*
X159258000Y-73906749D01*
X158964223Y-73935684D01*
X158681736Y-74021375D01*
X158421394Y-74160531D01*
X158193203Y-74347803D01*
X158005931Y-74575995D01*
X157988000Y-74609541D01*
X157970069Y-74575994D01*
X157782797Y-74347803D01*
X157554605Y-74160531D01*
X157294263Y-74021375D01*
X157011776Y-73935684D01*
X156718000Y-73906749D01*
X156424223Y-73935684D01*
X156141736Y-74021375D01*
X155881394Y-74160531D01*
X155653203Y-74347803D01*
X155465931Y-74575995D01*
X155326775Y-74836337D01*
X155241084Y-75118824D01*
X155219400Y-75338982D01*
X154152600Y-75338982D01*
X154152600Y-75338981D01*
X154130916Y-75118823D01*
X154045225Y-74836336D01*
X153906069Y-74575994D01*
X153718797Y-74347803D01*
X153490605Y-74160531D01*
X153230263Y-74021375D01*
X152947776Y-73935684D01*
X152654000Y-73906749D01*
X152360223Y-73935684D01*
X152077736Y-74021375D01*
X151817394Y-74160531D01*
X151589203Y-74347803D01*
X151401931Y-74575995D01*
X151384000Y-74609541D01*
X151366069Y-74575994D01*
X151178797Y-74347803D01*
X150950605Y-74160531D01*
X150690263Y-74021375D01*
X150407776Y-73935684D01*
X150114000Y-73906749D01*
X149820223Y-73935684D01*
X149537736Y-74021375D01*
X149277394Y-74160531D01*
X149049203Y-74347803D01*
X148861931Y-74575995D01*
X148844000Y-74609541D01*
X148826069Y-74575994D01*
X148638797Y-74347803D01*
X148410605Y-74160531D01*
X148150263Y-74021375D01*
X147867776Y-73935684D01*
X147574000Y-73906749D01*
X147280223Y-73935684D01*
X146997736Y-74021375D01*
X146737394Y-74160531D01*
X146509203Y-74347803D01*
X146321931Y-74575995D01*
X146304000Y-74609541D01*
X146286069Y-74575994D01*
X146098797Y-74347803D01*
X145870605Y-74160531D01*
X145610263Y-74021375D01*
X145327776Y-73935684D01*
X145034000Y-73906749D01*
X144740223Y-73935684D01*
X144457736Y-74021375D01*
X144197394Y-74160531D01*
X143969203Y-74347803D01*
X143781931Y-74575995D01*
X143764000Y-74609541D01*
X143746069Y-74575994D01*
X143558797Y-74347803D01*
X143330605Y-74160531D01*
X143070263Y-74021375D01*
X142787776Y-73935684D01*
X142494000Y-73906749D01*
X142200223Y-73935684D01*
X141917736Y-74021375D01*
X141657394Y-74160531D01*
X141429203Y-74347803D01*
X141241931Y-74575995D01*
X141224000Y-74609541D01*
X141206069Y-74575994D01*
X141018797Y-74347803D01*
X140790605Y-74160531D01*
X140530263Y-74021375D01*
X140247776Y-73935684D01*
X139954000Y-73906749D01*
X139660223Y-73935684D01*
X139377736Y-74021375D01*
X139117394Y-74160531D01*
X138889203Y-74347803D01*
X138701931Y-74575995D01*
X138680576Y-74615947D01*
X138532486Y-74413271D01*
X138316035Y-74214267D01*
X138064919Y-74061314D01*
X137788789Y-73960291D01*
X137773026Y-73957642D01*
X137541000Y-74078783D01*
X137287000Y-74078783D01*
X137054974Y-73957642D01*
X137039211Y-73960291D01*
X136763081Y-74061314D01*
X136511965Y-74214267D01*
X136295514Y-74413271D01*
X136147424Y-74615947D01*
X136126069Y-74575994D01*
X135938797Y-74347803D01*
X135710605Y-74160531D01*
X135450263Y-74021375D01*
X135167776Y-73935684D01*
X134874000Y-73906749D01*
X134580223Y-73935684D01*
X134297736Y-74021375D01*
X134037394Y-74160531D01*
X133809203Y-74347803D01*
X133621931Y-74575995D01*
X133604000Y-74609541D01*
X133586069Y-74575994D01*
X133398797Y-74347803D01*
X133170605Y-74160531D01*
X132910263Y-74021375D01*
X132627776Y-73935684D01*
X132334000Y-73906749D01*
X132040223Y-73935684D01*
X131757736Y-74021375D01*
X131497394Y-74160531D01*
X131269203Y-74347803D01*
X131081931Y-74575995D01*
X131064000Y-74609541D01*
X131046069Y-74575994D01*
X130858797Y-74347803D01*
X130630605Y-74160531D01*
X130370263Y-74021375D01*
X130087776Y-73935684D01*
X129794000Y-73906749D01*
X129500223Y-73935684D01*
X129217736Y-74021375D01*
X128957394Y-74160531D01*
X128729203Y-74347803D01*
X128657001Y-74435781D01*
X128601464Y-74301702D01*
X128309594Y-73864887D01*
X128179707Y-73735000D01*
X175219909Y-73735000D01*
X176328001Y-74843093D01*
X176328000Y-85944125D01*
X176324565Y-85979000D01*
X176328000Y-86013875D01*
X176328000Y-86013876D01*
X176338273Y-86118183D01*
X176378872Y-86252019D01*
X176444800Y-86375362D01*
X176533525Y-86483474D01*
X176560617Y-86505708D01*
X178868001Y-88813093D01*
X178868001Y-88863294D01*
X178738113Y-88733406D01*
X178301298Y-88441536D01*
X177815935Y-88240492D01*
X177300677Y-88138000D01*
X176775323Y-88138000D01*
X176260065Y-88240492D01*
X175774702Y-88441536D01*
X175337887Y-88733406D01*
X174966406Y-89104887D01*
X174674536Y-89541702D01*
X174473492Y-90027065D01*
X174371000Y-90542323D01*
X174371000Y-91067677D01*
X174473492Y-91582935D01*
X174674536Y-92068298D01*
X174966406Y-92505113D01*
X175337887Y-92876594D01*
X175774702Y-93168464D01*
X176260065Y-93369508D01*
X176775323Y-93472000D01*
X177300677Y-93472000D01*
X177815935Y-93369508D01*
X178301298Y-93168464D01*
X178738113Y-92876594D01*
X178868001Y-92746706D01*
X178868000Y-116803293D01*
X178738113Y-116673406D01*
X178301298Y-116381536D01*
X177815935Y-116180492D01*
X177300677Y-116078000D01*
X176775323Y-116078000D01*
X176260065Y-116180492D01*
X175774702Y-116381536D01*
X175337887Y-116673406D01*
X174966406Y-117044887D01*
X174674536Y-117481702D01*
X174473492Y-117967065D01*
X174371000Y-118482323D01*
X174371000Y-119007677D01*
X174473492Y-119522935D01*
X174674536Y-120008298D01*
X174966406Y-120445113D01*
X175337887Y-120816594D01*
X175774702Y-121108464D01*
X176260065Y-121309508D01*
X176775323Y-121412000D01*
X177300677Y-121412000D01*
X177815935Y-121309508D01*
X178301298Y-121108464D01*
X178738113Y-120816594D01*
X178868000Y-120686707D01*
X178868000Y-120990908D01*
X176560617Y-123298292D01*
X176533526Y-123320525D01*
X176511293Y-123347616D01*
X176444801Y-123428637D01*
X176378872Y-123551981D01*
X176338274Y-123685816D01*
X176324565Y-123825000D01*
X176328001Y-123859885D01*
X176328000Y-125655000D01*
X126909707Y-125655000D01*
X127039594Y-125525113D01*
X127331464Y-125088298D01*
X127532508Y-124602935D01*
X127635000Y-124087677D01*
X127635000Y-123562323D01*
X127532508Y-123047065D01*
X127331464Y-122561702D01*
X127039594Y-122124887D01*
X126668113Y-121753406D01*
X126231298Y-121461536D01*
X125745935Y-121260492D01*
X125230677Y-121158000D01*
X124705323Y-121158000D01*
X124190065Y-121260492D01*
X123704702Y-121461536D01*
X123267887Y-121753406D01*
X122896406Y-122124887D01*
X122604536Y-122561702D01*
X122403492Y-123047065D01*
X122301000Y-123562323D01*
X122301000Y-124087677D01*
X122403492Y-124602935D01*
X122604536Y-125088298D01*
X122896406Y-125525113D01*
X123026293Y-125655000D01*
X111708000Y-125655000D01*
X111708000Y-112395000D01*
X124271749Y-112395000D01*
X124300684Y-112688777D01*
X124386375Y-112971264D01*
X124525531Y-113231606D01*
X124712803Y-113459797D01*
X124940994Y-113647069D01*
X125201336Y-113786225D01*
X125483823Y-113871916D01*
X125703981Y-113893600D01*
X127172019Y-113893600D01*
X127392177Y-113871916D01*
X127674664Y-113786225D01*
X127935006Y-113647069D01*
X128163197Y-113459797D01*
X128350469Y-113231606D01*
X128489625Y-112971264D01*
X128575316Y-112688777D01*
X128604251Y-112395000D01*
X128575316Y-112101223D01*
X128489625Y-111818736D01*
X128350469Y-111558394D01*
X128163197Y-111330203D01*
X127935006Y-111142931D01*
X127674664Y-111003775D01*
X127392177Y-110918084D01*
X127172019Y-110896400D01*
X125703981Y-110896400D01*
X125483823Y-110918084D01*
X125201336Y-111003775D01*
X124940994Y-111142931D01*
X124712803Y-111330203D01*
X124525531Y-111558394D01*
X124386375Y-111818736D01*
X124300684Y-112101223D01*
X124271749Y-112395000D01*
X111708000Y-112395000D01*
X111708000Y-107395000D01*
X124271749Y-107395000D01*
X124300684Y-107688777D01*
X124386375Y-107971264D01*
X124525531Y-108231606D01*
X124712803Y-108459797D01*
X124940994Y-108647069D01*
X125201336Y-108786225D01*
X125483823Y-108871916D01*
X125703981Y-108893600D01*
X127172019Y-108893600D01*
X127392177Y-108871916D01*
X127674664Y-108786225D01*
X127935006Y-108647069D01*
X128163197Y-108459797D01*
X128350469Y-108231606D01*
X128489625Y-107971264D01*
X128575316Y-107688777D01*
X128604251Y-107395000D01*
X136771749Y-107395000D01*
X136800684Y-107688777D01*
X136886375Y-107971264D01*
X137025531Y-108231606D01*
X137212803Y-108459797D01*
X137440994Y-108647069D01*
X137701336Y-108786225D01*
X137983823Y-108871916D01*
X138203981Y-108893600D01*
X139672019Y-108893600D01*
X139892177Y-108871916D01*
X140174664Y-108786225D01*
X140435006Y-108647069D01*
X140663197Y-108459797D01*
X140850469Y-108231606D01*
X140989625Y-107971264D01*
X141075316Y-107688777D01*
X141104251Y-107395000D01*
X141075316Y-107101223D01*
X140989625Y-106818736D01*
X140850469Y-106558394D01*
X140663197Y-106330203D01*
X140435006Y-106142931D01*
X140174664Y-106003775D01*
X139892177Y-105918084D01*
X139672019Y-105896400D01*
X138203981Y-105896400D01*
X137983823Y-105918084D01*
X137701336Y-106003775D01*
X137440994Y-106142931D01*
X137212803Y-106330203D01*
X137025531Y-106558394D01*
X136886375Y-106818736D01*
X136800684Y-107101223D01*
X136771749Y-107395000D01*
X128604251Y-107395000D01*
X128575316Y-107101223D01*
X128489625Y-106818736D01*
X128350469Y-106558394D01*
X128163197Y-106330203D01*
X127935006Y-106142931D01*
X127674664Y-106003775D01*
X127392177Y-105918084D01*
X127172019Y-105896400D01*
X125703981Y-105896400D01*
X125483823Y-105918084D01*
X125201336Y-106003775D01*
X124940994Y-106142931D01*
X124712803Y-106330203D01*
X124525531Y-106558394D01*
X124386375Y-106818736D01*
X124300684Y-107101223D01*
X124271749Y-107395000D01*
X111708000Y-107395000D01*
X111708000Y-89257702D01*
X125424903Y-89257702D01*
X125496486Y-89501671D01*
X125751996Y-89622571D01*
X126026184Y-89691300D01*
X126308512Y-89705217D01*
X126588130Y-89663787D01*
X126854292Y-89568603D01*
X126979514Y-89501671D01*
X127051097Y-89257702D01*
X126238000Y-88444605D01*
X125424903Y-89257702D01*
X111708000Y-89257702D01*
X111708000Y-88335512D01*
X124797783Y-88335512D01*
X124839213Y-88615130D01*
X124934397Y-88881292D01*
X125001329Y-89006514D01*
X125245298Y-89078097D01*
X126058395Y-88265000D01*
X126417605Y-88265000D01*
X127230702Y-89078097D01*
X127474671Y-89006514D01*
X127595571Y-88751004D01*
X127664300Y-88476816D01*
X127674741Y-88265000D01*
X134956057Y-88265000D01*
X134983764Y-88546309D01*
X135065818Y-88816808D01*
X135199068Y-89066101D01*
X135378392Y-89284608D01*
X135596899Y-89463932D01*
X135846192Y-89597182D01*
X136116691Y-89679236D01*
X136327508Y-89700000D01*
X136468492Y-89700000D01*
X136679309Y-89679236D01*
X136949808Y-89597182D01*
X137199101Y-89463932D01*
X137417608Y-89284608D01*
X137596932Y-89066101D01*
X137730182Y-88816808D01*
X137812236Y-88546309D01*
X137839943Y-88265000D01*
X137812236Y-87983691D01*
X137730182Y-87713192D01*
X137596932Y-87463899D01*
X137417608Y-87245392D01*
X137199101Y-87066068D01*
X136949808Y-86932818D01*
X136679309Y-86850764D01*
X136468492Y-86830000D01*
X136327508Y-86830000D01*
X136116691Y-86850764D01*
X135846192Y-86932818D01*
X135596899Y-87066068D01*
X135378392Y-87245392D01*
X135199068Y-87463899D01*
X135065818Y-87713192D01*
X134983764Y-87983691D01*
X134956057Y-88265000D01*
X127674741Y-88265000D01*
X127678217Y-88194488D01*
X127636787Y-87914870D01*
X127541603Y-87648708D01*
X127474671Y-87523486D01*
X127230702Y-87451903D01*
X126417605Y-88265000D01*
X126058395Y-88265000D01*
X125245298Y-87451903D01*
X125001329Y-87523486D01*
X124880429Y-87778996D01*
X124811700Y-88053184D01*
X124797783Y-88335512D01*
X111708000Y-88335512D01*
X111708000Y-87272298D01*
X125424903Y-87272298D01*
X126238000Y-88085395D01*
X127051097Y-87272298D01*
X126979514Y-87028329D01*
X126724004Y-86907429D01*
X126449816Y-86838700D01*
X126167488Y-86824783D01*
X125887870Y-86866213D01*
X125621708Y-86961397D01*
X125496486Y-87028329D01*
X125424903Y-87272298D01*
X111708000Y-87272298D01*
X111708000Y-73735000D01*
X124296293Y-73735000D01*
X124166406Y-73864887D01*
X124166406Y-73864887D01*
G37*
X124166406Y-73864887D02*
X123874536Y-74301702D01*
X123673492Y-74787065D01*
X123571000Y-75302323D01*
X123571000Y-75827677D01*
X123673492Y-76342935D01*
X123874536Y-76828298D01*
X124166406Y-77265113D01*
X124537887Y-77636594D01*
X124974702Y-77928464D01*
X125460065Y-78129508D01*
X125975323Y-78232000D01*
X126500677Y-78232000D01*
X127015935Y-78129508D01*
X127501298Y-77928464D01*
X127938113Y-77636594D01*
X128309594Y-77265113D01*
X128601464Y-76828298D01*
X128657001Y-76694219D01*
X128729203Y-76782197D01*
X128957395Y-76969469D01*
X129217737Y-77108625D01*
X129500224Y-77194316D01*
X129794000Y-77223251D01*
X130087777Y-77194316D01*
X130170900Y-77169101D01*
X145798000Y-92796202D01*
X145798001Y-95339463D01*
X145729414Y-95442111D01*
X145658932Y-95612271D01*
X145623000Y-95792911D01*
X145623000Y-95977089D01*
X145658932Y-96157729D01*
X145729414Y-96327889D01*
X145831738Y-96481028D01*
X145961972Y-96611262D01*
X146115111Y-96713586D01*
X146285271Y-96784068D01*
X146465911Y-96820000D01*
X146650089Y-96820000D01*
X146830729Y-96784068D01*
X147000889Y-96713586D01*
X147154028Y-96611262D01*
X147284262Y-96481028D01*
X147386586Y-96327889D01*
X147457068Y-96157729D01*
X147493000Y-95977089D01*
X147493000Y-95792911D01*
X147457068Y-95612271D01*
X147386586Y-95442111D01*
X147318000Y-95339465D01*
X147318000Y-92639802D01*
X151073198Y-96395000D01*
X149160251Y-96395000D01*
X149122928Y-96391324D01*
X149085605Y-96395000D01*
X149085596Y-96395000D01*
X148973943Y-96405997D01*
X148830682Y-96449454D01*
X148698653Y-96520026D01*
X148698651Y-96520027D01*
X148698652Y-96520027D01*
X148611925Y-96591201D01*
X148611921Y-96591205D01*
X148582928Y-96614999D01*
X148559134Y-96643992D01*
X146046998Y-99156130D01*
X146018000Y-99179928D01*
X145994202Y-99208926D01*
X145994201Y-99208927D01*
X145923026Y-99295653D01*
X145852454Y-99427683D01*
X145808998Y-99570944D01*
X145794324Y-99719929D01*
X145798001Y-99757261D01*
X145798000Y-105989917D01*
X145586507Y-106131232D01*
X145374232Y-106343507D01*
X145232917Y-106555000D01*
X144969723Y-106555000D01*
X144932400Y-106551324D01*
X144895077Y-106555000D01*
X144895067Y-106555000D01*
X144783414Y-106565997D01*
X144640153Y-106609454D01*
X144508123Y-106680026D01*
X144424483Y-106748668D01*
X144392399Y-106774999D01*
X144368601Y-106803997D01*
X140170183Y-111002416D01*
X139892177Y-110918084D01*
X139672019Y-110896400D01*
X138203981Y-110896400D01*
X137983823Y-110918084D01*
X137701336Y-111003775D01*
X137440994Y-111142931D01*
X137212803Y-111330203D01*
X137025531Y-111558394D01*
X136886375Y-111818736D01*
X136800684Y-112101223D01*
X136771749Y-112395000D01*
X136800684Y-112688777D01*
X136886375Y-112971264D01*
X137025531Y-113231606D01*
X137212803Y-113459797D01*
X137440994Y-113647069D01*
X137701336Y-113786225D01*
X137983823Y-113871916D01*
X138203981Y-113893600D01*
X138213148Y-113893600D01*
X138232454Y-113957246D01*
X138303026Y-114089276D01*
X138374201Y-114176002D01*
X138398000Y-114205001D01*
X138426998Y-114228799D01*
X146382256Y-122184059D01*
X146264223Y-122195684D01*
X145981736Y-122281375D01*
X145721394Y-122420531D01*
X145493203Y-122607803D01*
X145305931Y-122835995D01*
X145288000Y-122869541D01*
X145270069Y-122835994D01*
X145082797Y-122607803D01*
X144854605Y-122420531D01*
X144594263Y-122281375D01*
X144311776Y-122195684D01*
X144018000Y-122166749D01*
X143724223Y-122195684D01*
X143441736Y-122281375D01*
X143181394Y-122420531D01*
X142953203Y-122607803D01*
X142765931Y-122835995D01*
X142748000Y-122869541D01*
X142730069Y-122835994D01*
X142542797Y-122607803D01*
X142314605Y-122420531D01*
X142054263Y-122281375D01*
X141771776Y-122195684D01*
X141478000Y-122166749D01*
X141184223Y-122195684D01*
X140901736Y-122281375D01*
X140641394Y-122420531D01*
X140413203Y-122607803D01*
X140225931Y-122835995D01*
X140208000Y-122869541D01*
X140190069Y-122835994D01*
X140002797Y-122607803D01*
X139774605Y-122420531D01*
X139514263Y-122281375D01*
X139231776Y-122195684D01*
X138938000Y-122166749D01*
X138644223Y-122195684D01*
X138361736Y-122281375D01*
X138101394Y-122420531D01*
X137873203Y-122607803D01*
X137685931Y-122835995D01*
X137546775Y-123096337D01*
X137461084Y-123378824D01*
X137439400Y-123598982D01*
X137439400Y-124051019D01*
X137461084Y-124271177D01*
X137546775Y-124553664D01*
X137685931Y-124814006D01*
X137873203Y-125042197D01*
X138101395Y-125229469D01*
X138361737Y-125368625D01*
X138644224Y-125454316D01*
X138938000Y-125483251D01*
X139231777Y-125454316D01*
X139514264Y-125368625D01*
X139774606Y-125229469D01*
X140002797Y-125042197D01*
X140190069Y-124814006D01*
X140208000Y-124780459D01*
X140225931Y-124814006D01*
X140413203Y-125042197D01*
X140641395Y-125229469D01*
X140901737Y-125368625D01*
X141184224Y-125454316D01*
X141478000Y-125483251D01*
X141771777Y-125454316D01*
X142054264Y-125368625D01*
X142314606Y-125229469D01*
X142542797Y-125042197D01*
X142730069Y-124814006D01*
X142748000Y-124780459D01*
X142765931Y-124814006D01*
X142953203Y-125042197D01*
X143181395Y-125229469D01*
X143441737Y-125368625D01*
X143724224Y-125454316D01*
X144018000Y-125483251D01*
X144311777Y-125454316D01*
X144594264Y-125368625D01*
X144854606Y-125229469D01*
X145082797Y-125042197D01*
X145270069Y-124814006D01*
X145288000Y-124780459D01*
X145305931Y-124814006D01*
X145493203Y-125042197D01*
X145721395Y-125229469D01*
X145981737Y-125368625D01*
X146264224Y-125454316D01*
X146558000Y-125483251D01*
X146851777Y-125454316D01*
X147134264Y-125368625D01*
X147394606Y-125229469D01*
X147622797Y-125042197D01*
X147810069Y-124814006D01*
X147828000Y-124780459D01*
X147845931Y-124814006D01*
X148033203Y-125042197D01*
X148261395Y-125229469D01*
X148521737Y-125368625D01*
X148804224Y-125454316D01*
X149098000Y-125483251D01*
X149391777Y-125454316D01*
X149674264Y-125368625D01*
X149934606Y-125229469D01*
X150162797Y-125042197D01*
X150350069Y-124814006D01*
X150371424Y-124774053D01*
X150519514Y-124976729D01*
X150735965Y-125175733D01*
X150987081Y-125328686D01*
X151263211Y-125429709D01*
X151278974Y-125432358D01*
X151511000Y-125311217D01*
X151511000Y-123952000D01*
X151765000Y-123952000D01*
X151765000Y-125311217D01*
X151997026Y-125432358D01*
X152012789Y-125429709D01*
X152288919Y-125328686D01*
X152540035Y-125175733D01*
X152756486Y-124976729D01*
X152908000Y-124769367D01*
X153059514Y-124976729D01*
X153275965Y-125175733D01*
X153527081Y-125328686D01*
X153803211Y-125429709D01*
X153818974Y-125432358D01*
X154051000Y-125311217D01*
X154051000Y-123952000D01*
X151765000Y-123952000D01*
X151511000Y-123952000D01*
X151491000Y-123952000D01*
X151491000Y-123698000D01*
X151511000Y-123698000D01*
X151511000Y-122338783D01*
X151765000Y-122338783D01*
X151765000Y-123698000D01*
X154051000Y-123698000D01*
X154051000Y-122338783D01*
X154305000Y-122338783D01*
X154305000Y-123698000D01*
X154325000Y-123698000D01*
X154325000Y-123952000D01*
X154305000Y-123952000D01*
X154305000Y-125311217D01*
X154537026Y-125432358D01*
X154552789Y-125429709D01*
X154828919Y-125328686D01*
X155080035Y-125175733D01*
X155296486Y-124976729D01*
X155444576Y-124774053D01*
X155465931Y-124814006D01*
X155653203Y-125042197D01*
X155881395Y-125229469D01*
X156141737Y-125368625D01*
X156424224Y-125454316D01*
X156718000Y-125483251D01*
X157011777Y-125454316D01*
X157294264Y-125368625D01*
X157554606Y-125229469D01*
X157782797Y-125042197D01*
X157970069Y-124814006D01*
X158109225Y-124553663D01*
X158194916Y-124271176D01*
X158216600Y-124051018D01*
X158216600Y-123598981D01*
X158194916Y-123378823D01*
X158109225Y-123096336D01*
X157970069Y-122835994D01*
X157782797Y-122607803D01*
X157554605Y-122420531D01*
X157294263Y-122281375D01*
X157011776Y-122195684D01*
X156718000Y-122166749D01*
X156424223Y-122195684D01*
X156141736Y-122281375D01*
X155881394Y-122420531D01*
X155653203Y-122607803D01*
X155465931Y-122835995D01*
X155444576Y-122875947D01*
X155296486Y-122673271D01*
X155080035Y-122474267D01*
X154828919Y-122321314D01*
X154552789Y-122220291D01*
X154537026Y-122217642D01*
X154305000Y-122338783D01*
X154051000Y-122338783D01*
X153818974Y-122217642D01*
X153803211Y-122220291D01*
X153527081Y-122321314D01*
X153275965Y-122474267D01*
X153059514Y-122673271D01*
X152908000Y-122880633D01*
X152756486Y-122673271D01*
X152540035Y-122474267D01*
X152288919Y-122321314D01*
X152012789Y-122220291D01*
X151997026Y-122217642D01*
X151765000Y-122338783D01*
X151511000Y-122338783D01*
X151278974Y-122217642D01*
X151263211Y-122220291D01*
X150987081Y-122321314D01*
X150735965Y-122474267D01*
X150519514Y-122673271D01*
X150371424Y-122875947D01*
X150350069Y-122835994D01*
X150162797Y-122607803D01*
X149934605Y-122420531D01*
X149674263Y-122281375D01*
X149391776Y-122195684D01*
X149098000Y-122166749D01*
X148804223Y-122195684D01*
X148721100Y-122220899D01*
X148548204Y-122048002D01*
X148524401Y-122018999D01*
X148408676Y-121924026D01*
X148276647Y-121853454D01*
X148168430Y-121820627D01*
X143647684Y-117299882D01*
X148272500Y-117299882D01*
X148272500Y-117650118D01*
X148340828Y-117993623D01*
X148474857Y-118317199D01*
X148669437Y-118608409D01*
X148917091Y-118856063D01*
X149208301Y-119050643D01*
X149531877Y-119184672D01*
X149875382Y-119253000D01*
X150225618Y-119253000D01*
X150569123Y-119184672D01*
X150892699Y-119050643D01*
X151183909Y-118856063D01*
X151431563Y-118608409D01*
X151626143Y-118317199D01*
X151760172Y-117993623D01*
X151828500Y-117650118D01*
X151828500Y-117299882D01*
X151760172Y-116956377D01*
X151626143Y-116632801D01*
X151431563Y-116341591D01*
X151183909Y-116093937D01*
X150892699Y-115899357D01*
X150569123Y-115765328D01*
X150225618Y-115697000D01*
X149875382Y-115697000D01*
X149531877Y-115765328D01*
X149208301Y-115899357D01*
X148917091Y-116093937D01*
X148669437Y-116341591D01*
X148474857Y-116632801D01*
X148340828Y-116956377D01*
X148272500Y-117299882D01*
X143647684Y-117299882D01*
X140143484Y-113795683D01*
X140174664Y-113786225D01*
X140435006Y-113647069D01*
X140663197Y-113459797D01*
X140670226Y-113451231D01*
X145681374Y-113451231D01*
X145763727Y-113704289D01*
X146034418Y-113834086D01*
X146325230Y-113908580D01*
X146624988Y-113924908D01*
X146922171Y-113882443D01*
X147205359Y-113782816D01*
X147352273Y-113704289D01*
X147434626Y-113451231D01*
X146558000Y-112574605D01*
X145681374Y-113451231D01*
X140670226Y-113451231D01*
X140850469Y-113231606D01*
X140989625Y-112971264D01*
X141075316Y-112688777D01*
X141097653Y-112461988D01*
X145028092Y-112461988D01*
X145070557Y-112759171D01*
X145170184Y-113042359D01*
X145248711Y-113189273D01*
X145501769Y-113271626D01*
X146378395Y-112395000D01*
X146737605Y-112395000D01*
X147614231Y-113271626D01*
X147867289Y-113189273D01*
X147997086Y-112918582D01*
X148071580Y-112627770D01*
X148087908Y-112328012D01*
X148045443Y-112030829D01*
X147945816Y-111747641D01*
X147867289Y-111600727D01*
X147614231Y-111518374D01*
X146737605Y-112395000D01*
X146378395Y-112395000D01*
X145501769Y-111518374D01*
X145248711Y-111600727D01*
X145118914Y-111871418D01*
X145044420Y-112162230D01*
X145028092Y-112461988D01*
X141097653Y-112461988D01*
X141104251Y-112395000D01*
X141088376Y-112233825D01*
X145238639Y-108083563D01*
X145374232Y-108286493D01*
X145586507Y-108498768D01*
X145715562Y-108585000D01*
X145586507Y-108671232D01*
X145374232Y-108883507D01*
X145207449Y-109133115D01*
X145092566Y-109410466D01*
X145034000Y-109704899D01*
X145034000Y-110005101D01*
X145092566Y-110299534D01*
X145207449Y-110576885D01*
X145374232Y-110826493D01*
X145586507Y-111038768D01*
X145744622Y-111144417D01*
X145681374Y-111338769D01*
X146558000Y-112215395D01*
X147434626Y-111338769D01*
X147371378Y-111144417D01*
X147529493Y-111038768D01*
X147741768Y-110826493D01*
X147908551Y-110576885D01*
X148023434Y-110299534D01*
X148082000Y-110005101D01*
X148082000Y-109704899D01*
X148023434Y-109410466D01*
X147908551Y-109133115D01*
X147741768Y-108883507D01*
X147529493Y-108671232D01*
X147400438Y-108585000D01*
X147529493Y-108498768D01*
X147535350Y-108492911D01*
X153243000Y-108492911D01*
X153243000Y-108677089D01*
X153278932Y-108857729D01*
X153349414Y-109027889D01*
X153451738Y-109181028D01*
X153581972Y-109311262D01*
X153735111Y-109413586D01*
X153905271Y-109484068D01*
X154026352Y-109508153D01*
X157424201Y-112906003D01*
X157447999Y-112935001D01*
X157563724Y-113029974D01*
X157695753Y-113100546D01*
X157839014Y-113144003D01*
X157950667Y-113155000D01*
X157950675Y-113155000D01*
X157988000Y-113158676D01*
X158025325Y-113155000D01*
X158712465Y-113155000D01*
X158815111Y-113223586D01*
X158985271Y-113294068D01*
X159165911Y-113330000D01*
X159350089Y-113330000D01*
X159530729Y-113294068D01*
X159700889Y-113223586D01*
X159854028Y-113121262D01*
X159984262Y-112991028D01*
X160086586Y-112837889D01*
X160157068Y-112667729D01*
X160193000Y-112487089D01*
X160193000Y-112302911D01*
X160157068Y-112122271D01*
X160086586Y-111952111D01*
X159984262Y-111798972D01*
X159854028Y-111668738D01*
X159700889Y-111566414D01*
X159530729Y-111495932D01*
X159350089Y-111460000D01*
X159165911Y-111460000D01*
X158985271Y-111495932D01*
X158815111Y-111566414D01*
X158712465Y-111635000D01*
X158302802Y-111635000D01*
X155101153Y-108433352D01*
X155077068Y-108312271D01*
X155006586Y-108142111D01*
X154904262Y-107988972D01*
X154774028Y-107858738D01*
X154620889Y-107756414D01*
X154450729Y-107685932D01*
X154270089Y-107650000D01*
X154085911Y-107650000D01*
X153905271Y-107685932D01*
X153735111Y-107756414D01*
X153581972Y-107858738D01*
X153451738Y-107988972D01*
X153349414Y-108142111D01*
X153278932Y-108312271D01*
X153243000Y-108492911D01*
X147535350Y-108492911D01*
X147741768Y-108286493D01*
X147908551Y-108036885D01*
X148023434Y-107759534D01*
X148082000Y-107465101D01*
X148082000Y-107164899D01*
X148023434Y-106870466D01*
X147908551Y-106593115D01*
X147866312Y-106529899D01*
X162814000Y-106529899D01*
X162814000Y-106830101D01*
X162872566Y-107124534D01*
X162987449Y-107401885D01*
X163154232Y-107651493D01*
X163366507Y-107863768D01*
X163616115Y-108030551D01*
X163893466Y-108145434D01*
X164187899Y-108204000D01*
X164488101Y-108204000D01*
X164782534Y-108145434D01*
X165059885Y-108030551D01*
X165309493Y-107863768D01*
X165437030Y-107736231D01*
X168541374Y-107736231D01*
X168623727Y-107989289D01*
X168894418Y-108119086D01*
X169185230Y-108193580D01*
X169484988Y-108209908D01*
X169782171Y-108167443D01*
X170065359Y-108067816D01*
X170212273Y-107989289D01*
X170294626Y-107736231D01*
X169418000Y-106859605D01*
X168541374Y-107736231D01*
X165437030Y-107736231D01*
X165521768Y-107651493D01*
X165688551Y-107401885D01*
X165803434Y-107124534D01*
X165862000Y-106830101D01*
X165862000Y-106746988D01*
X167888092Y-106746988D01*
X167930557Y-107044171D01*
X168030184Y-107327359D01*
X168108711Y-107474273D01*
X168361769Y-107556626D01*
X169238395Y-106680000D01*
X169597605Y-106680000D01*
X170474231Y-107556626D01*
X170727289Y-107474273D01*
X170857086Y-107203582D01*
X170931580Y-106912770D01*
X170947908Y-106613012D01*
X170905443Y-106315829D01*
X170805816Y-106032641D01*
X170727289Y-105885727D01*
X170474231Y-105803374D01*
X169597605Y-106680000D01*
X169238395Y-106680000D01*
X168361769Y-105803374D01*
X168108711Y-105885727D01*
X167978914Y-106156418D01*
X167904420Y-106447230D01*
X167888092Y-106746988D01*
X165862000Y-106746988D01*
X165862000Y-106529899D01*
X165803434Y-106235466D01*
X165688551Y-105958115D01*
X165521768Y-105708507D01*
X165437030Y-105623769D01*
X168541374Y-105623769D01*
X169418000Y-106500395D01*
X170294626Y-105623769D01*
X170212273Y-105370711D01*
X169941582Y-105240914D01*
X169650770Y-105166420D01*
X169351012Y-105150092D01*
X169053829Y-105192557D01*
X168770641Y-105292184D01*
X168623727Y-105370711D01*
X168541374Y-105623769D01*
X165437030Y-105623769D01*
X165309493Y-105496232D01*
X165059885Y-105329449D01*
X164782534Y-105214566D01*
X164488101Y-105156000D01*
X164187899Y-105156000D01*
X163893466Y-105214566D01*
X163616115Y-105329449D01*
X163366507Y-105496232D01*
X163154232Y-105708507D01*
X162987449Y-105958115D01*
X162872566Y-106235466D01*
X162814000Y-106529899D01*
X147866312Y-106529899D01*
X147741768Y-106343507D01*
X147529493Y-106131232D01*
X147318000Y-105989917D01*
X147318000Y-102059882D01*
X148272500Y-102059882D01*
X148272500Y-102410118D01*
X148340828Y-102753623D01*
X148474857Y-103077199D01*
X148669437Y-103368409D01*
X148917091Y-103616063D01*
X149208301Y-103810643D01*
X149531877Y-103944672D01*
X149875382Y-104013000D01*
X150225618Y-104013000D01*
X150569123Y-103944672D01*
X150892699Y-103810643D01*
X151183909Y-103616063D01*
X151431563Y-103368409D01*
X151626143Y-103077199D01*
X151760172Y-102753623D01*
X151828500Y-102410118D01*
X151828500Y-102059882D01*
X161607500Y-102059882D01*
X161607500Y-102410118D01*
X161675828Y-102753623D01*
X161809857Y-103077199D01*
X162004437Y-103368409D01*
X162252091Y-103616063D01*
X162543301Y-103810643D01*
X162866877Y-103944672D01*
X163210382Y-104013000D01*
X163560618Y-104013000D01*
X163904123Y-103944672D01*
X164227699Y-103810643D01*
X164518909Y-103616063D01*
X164766563Y-103368409D01*
X164961143Y-103077199D01*
X165095172Y-102753623D01*
X165163500Y-102410118D01*
X165163500Y-102059882D01*
X165095172Y-101716377D01*
X164961143Y-101392801D01*
X164766563Y-101101591D01*
X164518909Y-100853937D01*
X164227699Y-100659357D01*
X163904123Y-100525328D01*
X163560618Y-100457000D01*
X163210382Y-100457000D01*
X162866877Y-100525328D01*
X162543301Y-100659357D01*
X162252091Y-100853937D01*
X162004437Y-101101591D01*
X161809857Y-101392801D01*
X161675828Y-101716377D01*
X161607500Y-102059882D01*
X151828500Y-102059882D01*
X151760172Y-101716377D01*
X151626143Y-101392801D01*
X151431563Y-101101591D01*
X151183909Y-100853937D01*
X151030199Y-100751231D01*
X153301374Y-100751231D01*
X153383727Y-101004289D01*
X153654418Y-101134086D01*
X153945230Y-101208580D01*
X154244988Y-101224908D01*
X154542171Y-101182443D01*
X154825359Y-101082816D01*
X154972273Y-101004289D01*
X155054626Y-100751231D01*
X154178000Y-99874605D01*
X153301374Y-100751231D01*
X151030199Y-100751231D01*
X150892699Y-100659357D01*
X150569123Y-100525328D01*
X150225618Y-100457000D01*
X149875382Y-100457000D01*
X149531877Y-100525328D01*
X149208301Y-100659357D01*
X148917091Y-100853937D01*
X148669437Y-101101591D01*
X148474857Y-101392801D01*
X148340828Y-101716377D01*
X148272500Y-102059882D01*
X147318000Y-102059882D01*
X147318000Y-100034730D01*
X147590742Y-99761988D01*
X152648092Y-99761988D01*
X152690557Y-100059171D01*
X152790184Y-100342359D01*
X152868711Y-100489273D01*
X153121769Y-100571626D01*
X153998395Y-99695000D01*
X153121769Y-98818374D01*
X152868711Y-98900727D01*
X152738914Y-99171418D01*
X152664420Y-99462230D01*
X152648092Y-99761988D01*
X147590742Y-99761988D01*
X148713962Y-98638769D01*
X153301374Y-98638769D01*
X154178000Y-99515395D01*
X155054626Y-98638769D01*
X154972273Y-98385711D01*
X154701582Y-98255914D01*
X154410770Y-98181420D01*
X154111012Y-98165092D01*
X153813829Y-98207557D01*
X153530641Y-98307184D01*
X153383727Y-98385711D01*
X153301374Y-98638769D01*
X148713962Y-98638769D01*
X149437732Y-97915000D01*
X156403199Y-97915000D01*
X156659199Y-98171000D01*
X156567899Y-98171000D01*
X156273466Y-98229566D01*
X155996115Y-98344449D01*
X155746507Y-98511232D01*
X155534232Y-98723507D01*
X155428583Y-98881622D01*
X155234231Y-98818374D01*
X154357605Y-99695000D01*
X155234231Y-100571626D01*
X155428583Y-100508378D01*
X155534232Y-100666493D01*
X155746507Y-100878768D01*
X155996115Y-101045551D01*
X156273466Y-101160434D01*
X156567899Y-101219000D01*
X156868101Y-101219000D01*
X157162534Y-101160434D01*
X157439885Y-101045551D01*
X157689493Y-100878768D01*
X157901768Y-100666493D01*
X157988000Y-100537438D01*
X158074232Y-100666493D01*
X158286507Y-100878768D01*
X158536115Y-101045551D01*
X158813466Y-101160434D01*
X159107899Y-101219000D01*
X159408101Y-101219000D01*
X159702534Y-101160434D01*
X159979885Y-101045551D01*
X160229493Y-100878768D01*
X160441768Y-100666493D01*
X160608551Y-100416885D01*
X160723434Y-100139534D01*
X160782000Y-99845101D01*
X160782000Y-99544899D01*
X160723434Y-99250466D01*
X160608551Y-98973115D01*
X160441768Y-98723507D01*
X160229493Y-98511232D01*
X159979885Y-98344449D01*
X159702534Y-98229566D01*
X159408101Y-98171000D01*
X159107899Y-98171000D01*
X158858425Y-98220623D01*
X158102792Y-97464990D01*
X161718989Y-97464990D01*
X166118000Y-101864003D01*
X166118001Y-102959464D01*
X166049414Y-103062111D01*
X165978932Y-103232271D01*
X165943000Y-103412911D01*
X165943000Y-103597089D01*
X165978932Y-103777729D01*
X166049414Y-103947889D01*
X166151738Y-104101028D01*
X166281972Y-104231262D01*
X166435111Y-104333586D01*
X166605271Y-104404068D01*
X166785911Y-104440000D01*
X166970089Y-104440000D01*
X167150729Y-104404068D01*
X167320889Y-104333586D01*
X167474028Y-104231262D01*
X167604262Y-104101028D01*
X167706586Y-103947889D01*
X167777068Y-103777729D01*
X167813000Y-103597089D01*
X167813000Y-103412911D01*
X167777068Y-103232271D01*
X167706586Y-103062111D01*
X167638000Y-102959465D01*
X167638000Y-101586522D01*
X167641676Y-101549199D01*
X167638000Y-101511876D01*
X167638000Y-101511867D01*
X167627003Y-101400214D01*
X167583546Y-101256953D01*
X167512974Y-101124924D01*
X167478417Y-101082816D01*
X167441799Y-101038196D01*
X167441795Y-101038192D01*
X167418001Y-101009199D01*
X167389009Y-100985406D01*
X162597594Y-96193993D01*
X162573791Y-96164989D01*
X162458066Y-96070016D01*
X162326037Y-95999444D01*
X162182776Y-95955987D01*
X162071123Y-95944990D01*
X162071112Y-95944990D01*
X162033790Y-95941314D01*
X161996468Y-95944990D01*
X152772792Y-95944990D01*
X133493997Y-76666196D01*
X133586069Y-76554006D01*
X133604000Y-76520459D01*
X133621931Y-76554006D01*
X133809203Y-76782197D01*
X134037395Y-76969469D01*
X134297737Y-77108625D01*
X134580224Y-77194316D01*
X134874000Y-77223251D01*
X135167777Y-77194316D01*
X135450264Y-77108625D01*
X135710606Y-76969469D01*
X135938797Y-76782197D01*
X136126069Y-76554006D01*
X136147424Y-76514053D01*
X136295514Y-76716729D01*
X136511965Y-76915733D01*
X136763081Y-77068686D01*
X137039211Y-77169709D01*
X137054974Y-77172358D01*
X137287000Y-77051217D01*
X137287000Y-75692000D01*
X137267000Y-75692000D01*
X137267000Y-75438000D01*
X137287000Y-75438000D01*
X137287000Y-74078783D01*
X137541000Y-74078783D01*
X137541000Y-75438000D01*
X137561000Y-75438000D01*
X137561000Y-75692000D01*
X137541000Y-75692000D01*
X137541000Y-77051217D01*
X137773026Y-77172358D01*
X137788789Y-77169709D01*
X138064919Y-77068686D01*
X138316035Y-76915733D01*
X138532486Y-76716729D01*
X138680576Y-76514053D01*
X138701931Y-76554006D01*
X138889203Y-76782197D01*
X139117395Y-76969469D01*
X139377737Y-77108625D01*
X139660224Y-77194316D01*
X139954000Y-77223251D01*
X140247777Y-77194316D01*
X140530264Y-77108625D01*
X140790606Y-76969469D01*
X141018797Y-76782197D01*
X141206069Y-76554006D01*
X141224000Y-76520459D01*
X141241931Y-76554006D01*
X141429203Y-76782197D01*
X141657395Y-76969469D01*
X141758143Y-77023320D01*
X141788454Y-77123246D01*
X141859026Y-77255276D01*
X141920354Y-77330003D01*
X141954000Y-77371001D01*
X141982998Y-77394799D01*
X153364201Y-88776003D01*
X153387999Y-88805001D01*
X153503724Y-88899974D01*
X153635753Y-88970546D01*
X153779014Y-89014003D01*
X153890667Y-89025000D01*
X153890677Y-89025000D01*
X153928000Y-89028676D01*
X153965323Y-89025000D01*
X165600405Y-89025000D01*
X165637294Y-89094014D01*
X165822866Y-89320134D01*
X166048986Y-89505706D01*
X166306966Y-89643599D01*
X166586889Y-89728513D01*
X166805050Y-89750000D01*
X166950950Y-89750000D01*
X167169111Y-89728513D01*
X167449034Y-89643599D01*
X167707014Y-89505706D01*
X167933134Y-89320134D01*
X168118706Y-89094014D01*
X168148000Y-89039209D01*
X168177294Y-89094014D01*
X168362866Y-89320134D01*
X168588986Y-89505706D01*
X168846966Y-89643599D01*
X169126889Y-89728513D01*
X169345050Y-89750000D01*
X169490950Y-89750000D01*
X169709111Y-89728513D01*
X169989034Y-89643599D01*
X170247014Y-89505706D01*
X170473134Y-89320134D01*
X170658706Y-89094014D01*
X170796599Y-88836034D01*
X170881513Y-88556111D01*
X170910185Y-88265000D01*
X170881513Y-87973889D01*
X170796599Y-87693966D01*
X170658706Y-87435986D01*
X170473134Y-87209866D01*
X170247014Y-87024294D01*
X170192209Y-86995000D01*
X170247014Y-86965706D01*
X170473134Y-86780134D01*
X170658706Y-86554014D01*
X170796599Y-86296034D01*
X170881513Y-86016111D01*
X170910185Y-85725000D01*
X170881513Y-85433889D01*
X170796599Y-85153966D01*
X170658706Y-84895986D01*
X170473134Y-84669866D01*
X170247014Y-84484294D01*
X170192209Y-84455000D01*
X170247014Y-84425706D01*
X170473134Y-84240134D01*
X170658706Y-84014014D01*
X170796599Y-83756034D01*
X170881513Y-83476111D01*
X170910185Y-83185000D01*
X170881513Y-82893889D01*
X170796599Y-82613966D01*
X170658706Y-82355986D01*
X170473134Y-82129866D01*
X170443313Y-82105393D01*
X170512180Y-82084502D01*
X170622494Y-82025537D01*
X170719185Y-81946185D01*
X170730543Y-81932345D01*
X171452001Y-82653803D01*
X171452000Y-107177998D01*
X165843435Y-112786564D01*
X165803434Y-112585466D01*
X165688551Y-112308115D01*
X165521768Y-112058507D01*
X165309493Y-111846232D01*
X165059885Y-111679449D01*
X164782534Y-111564566D01*
X164488101Y-111506000D01*
X164187899Y-111506000D01*
X163893466Y-111564566D01*
X163616115Y-111679449D01*
X163366507Y-111846232D01*
X163154232Y-112058507D01*
X162987449Y-112308115D01*
X162872566Y-112585466D01*
X162814000Y-112879899D01*
X162814000Y-113180101D01*
X162872566Y-113474534D01*
X162987449Y-113751885D01*
X163154232Y-114001493D01*
X163366507Y-114213768D01*
X163612596Y-114378200D01*
X157822122Y-114378200D01*
X157784799Y-114374524D01*
X157747476Y-114378200D01*
X157747467Y-114378200D01*
X157635814Y-114389197D01*
X157492553Y-114432654D01*
X157360524Y-114503226D01*
X157360522Y-114503227D01*
X157360523Y-114503227D01*
X157273796Y-114574401D01*
X157273792Y-114574405D01*
X157244799Y-114598199D01*
X157221005Y-114627192D01*
X154026351Y-117821847D01*
X153905271Y-117845932D01*
X153735111Y-117916414D01*
X153581972Y-118018738D01*
X153451738Y-118148972D01*
X153349414Y-118302111D01*
X153278932Y-118472271D01*
X153243000Y-118652911D01*
X153243000Y-118837089D01*
X153278932Y-119017729D01*
X153349414Y-119187889D01*
X153451738Y-119341028D01*
X153581972Y-119471262D01*
X153735111Y-119573586D01*
X153905271Y-119644068D01*
X154085911Y-119680000D01*
X154270089Y-119680000D01*
X154450729Y-119644068D01*
X154620889Y-119573586D01*
X154774028Y-119471262D01*
X154904262Y-119341028D01*
X155006586Y-119187889D01*
X155077068Y-119017729D01*
X155101153Y-118896649D01*
X158099603Y-115898200D01*
X162546094Y-115898200D01*
X162543301Y-115899357D01*
X162252091Y-116093937D01*
X162004437Y-116341591D01*
X161809857Y-116632801D01*
X161675828Y-116956377D01*
X161607500Y-117299882D01*
X161607500Y-117650118D01*
X161675828Y-117993623D01*
X161809857Y-118317199D01*
X162004437Y-118608409D01*
X162252091Y-118856063D01*
X162543301Y-119050643D01*
X162866877Y-119184672D01*
X163210382Y-119253000D01*
X163560618Y-119253000D01*
X163904123Y-119184672D01*
X164227699Y-119050643D01*
X164518909Y-118856063D01*
X164766563Y-118608409D01*
X164961143Y-118317199D01*
X165095172Y-117993623D01*
X165163500Y-117650118D01*
X165163500Y-117299882D01*
X165102165Y-116991532D01*
X165165103Y-117033586D01*
X165335263Y-117104068D01*
X165515903Y-117140000D01*
X165700081Y-117140000D01*
X165880721Y-117104068D01*
X166050881Y-117033586D01*
X166153527Y-116965000D01*
X166715599Y-116965000D01*
X171920992Y-122170394D01*
X171664223Y-122195684D01*
X171381736Y-122281375D01*
X171121394Y-122420531D01*
X170893203Y-122607803D01*
X170705931Y-122835995D01*
X170688000Y-122869541D01*
X170670069Y-122835994D01*
X170482797Y-122607803D01*
X170254605Y-122420531D01*
X169994263Y-122281375D01*
X169711776Y-122195684D01*
X169418000Y-122166749D01*
X169124223Y-122195684D01*
X168841736Y-122281375D01*
X168581394Y-122420531D01*
X168353203Y-122607803D01*
X168165931Y-122835995D01*
X168148000Y-122869541D01*
X168130069Y-122835994D01*
X167942797Y-122607803D01*
X167714605Y-122420531D01*
X167454263Y-122281375D01*
X167171776Y-122195684D01*
X166878000Y-122166749D01*
X166584223Y-122195684D01*
X166301736Y-122281375D01*
X166041394Y-122420531D01*
X165813203Y-122607803D01*
X165625931Y-122835995D01*
X165608000Y-122869541D01*
X165590069Y-122835994D01*
X165402797Y-122607803D01*
X165174605Y-122420531D01*
X164914263Y-122281375D01*
X164631776Y-122195684D01*
X164338000Y-122166749D01*
X164044223Y-122195684D01*
X163761736Y-122281375D01*
X163501394Y-122420531D01*
X163273203Y-122607803D01*
X163085931Y-122835995D01*
X163068000Y-122869541D01*
X163050069Y-122835994D01*
X162862797Y-122607803D01*
X162634605Y-122420531D01*
X162374263Y-122281375D01*
X162091776Y-122195684D01*
X161798000Y-122166749D01*
X161504223Y-122195684D01*
X161221736Y-122281375D01*
X160961394Y-122420531D01*
X160733203Y-122607803D01*
X160545931Y-122835995D01*
X160406775Y-123096337D01*
X160321084Y-123378824D01*
X160299400Y-123598982D01*
X160299400Y-124051019D01*
X160321084Y-124271177D01*
X160406775Y-124553664D01*
X160545931Y-124814006D01*
X160733203Y-125042197D01*
X160961395Y-125229469D01*
X161221737Y-125368625D01*
X161504224Y-125454316D01*
X161798000Y-125483251D01*
X162091777Y-125454316D01*
X162374264Y-125368625D01*
X162634606Y-125229469D01*
X162862797Y-125042197D01*
X163050069Y-124814006D01*
X163068000Y-124780459D01*
X163085931Y-124814006D01*
X163273203Y-125042197D01*
X163501395Y-125229469D01*
X163761737Y-125368625D01*
X164044224Y-125454316D01*
X164338000Y-125483251D01*
X164631777Y-125454316D01*
X164914264Y-125368625D01*
X165174606Y-125229469D01*
X165402797Y-125042197D01*
X165590069Y-124814006D01*
X165608000Y-124780459D01*
X165625931Y-124814006D01*
X165813203Y-125042197D01*
X166041395Y-125229469D01*
X166301737Y-125368625D01*
X166584224Y-125454316D01*
X166878000Y-125483251D01*
X167171777Y-125454316D01*
X167454264Y-125368625D01*
X167714606Y-125229469D01*
X167942797Y-125042197D01*
X168130069Y-124814006D01*
X168148000Y-124780459D01*
X168165931Y-124814006D01*
X168353203Y-125042197D01*
X168581395Y-125229469D01*
X168841737Y-125368625D01*
X169124224Y-125454316D01*
X169418000Y-125483251D01*
X169711777Y-125454316D01*
X169994264Y-125368625D01*
X170254606Y-125229469D01*
X170482797Y-125042197D01*
X170670069Y-124814006D01*
X170688000Y-124780459D01*
X170705931Y-124814006D01*
X170893203Y-125042197D01*
X171121395Y-125229469D01*
X171381737Y-125368625D01*
X171664224Y-125454316D01*
X171958000Y-125483251D01*
X172251777Y-125454316D01*
X172534264Y-125368625D01*
X172794606Y-125229469D01*
X173022797Y-125042197D01*
X173210069Y-124814006D01*
X173228000Y-124780459D01*
X173245931Y-124814006D01*
X173433203Y-125042197D01*
X173661395Y-125229469D01*
X173921737Y-125368625D01*
X174204224Y-125454316D01*
X174498000Y-125483251D01*
X174791777Y-125454316D01*
X175074264Y-125368625D01*
X175334606Y-125229469D01*
X175562797Y-125042197D01*
X175750069Y-124814006D01*
X175889225Y-124553663D01*
X175974916Y-124271176D01*
X175996600Y-124051018D01*
X175996600Y-123598981D01*
X175974916Y-123378823D01*
X175889225Y-123096336D01*
X175750069Y-122835994D01*
X175562797Y-122607803D01*
X175334605Y-122420531D01*
X175074263Y-122281375D01*
X174791776Y-122195684D01*
X174498000Y-122166749D01*
X174204223Y-122195684D01*
X174121101Y-122220899D01*
X167594204Y-115694003D01*
X167570401Y-115664999D01*
X167454676Y-115570026D01*
X167322647Y-115499454D01*
X167179386Y-115455997D01*
X167067733Y-115445000D01*
X167067722Y-115445000D01*
X167030400Y-115441324D01*
X166993078Y-115445000D01*
X166153527Y-115445000D01*
X166050881Y-115376414D01*
X165880721Y-115305932D01*
X165700081Y-115270000D01*
X165515903Y-115270000D01*
X165508036Y-115271565D01*
X167894000Y-112885601D01*
X167894000Y-113180101D01*
X167952566Y-113474534D01*
X168067449Y-113751885D01*
X168234232Y-114001493D01*
X168446507Y-114213768D01*
X168696115Y-114380551D01*
X168973466Y-114495434D01*
X169267899Y-114554000D01*
X169568101Y-114554000D01*
X169862534Y-114495434D01*
X170139885Y-114380551D01*
X170389493Y-114213768D01*
X170601768Y-114001493D01*
X170768551Y-113751885D01*
X170883434Y-113474534D01*
X170942000Y-113180101D01*
X170942000Y-112879899D01*
X170883434Y-112585466D01*
X170768551Y-112308115D01*
X170601768Y-112058507D01*
X170389493Y-111846232D01*
X170139885Y-111679449D01*
X169862534Y-111564566D01*
X169568101Y-111506000D01*
X169273602Y-111506000D01*
X172723004Y-108056598D01*
X172752001Y-108032801D01*
X172846974Y-107917076D01*
X172917546Y-107785047D01*
X172961003Y-107641786D01*
X172972000Y-107530133D01*
X172972000Y-107530124D01*
X172975676Y-107492801D01*
X172972000Y-107455478D01*
X172972000Y-82376325D01*
X172975676Y-82339000D01*
X172972000Y-82301675D01*
X172972000Y-82301667D01*
X172961003Y-82190014D01*
X172917546Y-82046753D01*
X172846974Y-81914724D01*
X172752001Y-81798999D01*
X172723003Y-81775201D01*
X171081804Y-80134003D01*
X171058001Y-80104999D01*
X170942276Y-80010026D01*
X170906072Y-79990674D01*
X170906072Y-79795000D01*
X170893812Y-79670518D01*
X170857502Y-79550820D01*
X170798537Y-79440506D01*
X170719185Y-79343815D01*
X170622494Y-79264463D01*
X170512180Y-79205498D01*
X170392482Y-79169188D01*
X170268000Y-79156928D01*
X168568000Y-79156928D01*
X168443518Y-79169188D01*
X168323820Y-79205498D01*
X168213506Y-79264463D01*
X168116815Y-79343815D01*
X168037463Y-79440506D01*
X167978498Y-79550820D01*
X167955502Y-79626626D01*
X167759355Y-79449822D01*
X167509252Y-79300843D01*
X167234891Y-79203519D01*
X167005000Y-79324186D01*
X167005000Y-80518000D01*
X167025000Y-80518000D01*
X167025000Y-80772000D01*
X167005000Y-80772000D01*
X167005000Y-80792000D01*
X166751000Y-80792000D01*
X166751000Y-80772000D01*
X165557845Y-80772000D01*
X165436524Y-81001890D01*
X165454150Y-81060001D01*
X164557803Y-81060001D01*
X163785912Y-80288110D01*
X165436524Y-80288110D01*
X165557845Y-80518000D01*
X166751000Y-80518000D01*
X166751000Y-79324186D01*
X166521109Y-79203519D01*
X166246748Y-79300843D01*
X165996645Y-79449822D01*
X165780412Y-79644731D01*
X165606359Y-79878080D01*
X165481175Y-80140901D01*
X165436524Y-80288110D01*
X163785912Y-80288110D01*
X161091804Y-77594003D01*
X161068001Y-77564999D01*
X160952276Y-77470026D01*
X160820247Y-77399454D01*
X160676986Y-77355997D01*
X160565333Y-77345000D01*
X160565322Y-77345000D01*
X160528000Y-77341324D01*
X160490678Y-77345000D01*
X154242802Y-77345000D01*
X153697487Y-76799686D01*
X153718797Y-76782197D01*
X153906069Y-76554006D01*
X154045225Y-76293663D01*
X154130916Y-76011176D01*
X154152600Y-75791018D01*
X154152600Y-75338982D01*
X155219400Y-75338982D01*
X155219400Y-75791019D01*
X155241084Y-76011177D01*
X155326775Y-76293664D01*
X155465931Y-76554006D01*
X155653203Y-76782197D01*
X155881395Y-76969469D01*
X156141737Y-77108625D01*
X156424224Y-77194316D01*
X156718000Y-77223251D01*
X157011777Y-77194316D01*
X157294264Y-77108625D01*
X157554606Y-76969469D01*
X157782797Y-76782197D01*
X157970069Y-76554006D01*
X157988000Y-76520459D01*
X158005931Y-76554006D01*
X158193203Y-76782197D01*
X158421395Y-76969469D01*
X158681737Y-77108625D01*
X158964224Y-77194316D01*
X159258000Y-77223251D01*
X159551777Y-77194316D01*
X159834264Y-77108625D01*
X160094606Y-76969469D01*
X160322797Y-76782197D01*
X160510069Y-76554006D01*
X160528000Y-76520459D01*
X160545931Y-76554006D01*
X160733203Y-76782197D01*
X160961395Y-76969469D01*
X161221737Y-77108625D01*
X161504224Y-77194316D01*
X161798000Y-77223251D01*
X162091777Y-77194316D01*
X162374264Y-77108625D01*
X162634606Y-76969469D01*
X162862797Y-76782197D01*
X163050069Y-76554006D01*
X163068000Y-76520459D01*
X163085931Y-76554006D01*
X163273203Y-76782197D01*
X163501395Y-76969469D01*
X163761737Y-77108625D01*
X164044224Y-77194316D01*
X164338000Y-77223251D01*
X164631777Y-77194316D01*
X164914264Y-77108625D01*
X165174606Y-76969469D01*
X165402797Y-76782197D01*
X165590069Y-76554006D01*
X165608000Y-76520459D01*
X165625931Y-76554006D01*
X165813203Y-76782197D01*
X166041395Y-76969469D01*
X166301737Y-77108625D01*
X166584224Y-77194316D01*
X166878000Y-77223251D01*
X167171777Y-77194316D01*
X167454264Y-77108625D01*
X167714606Y-76969469D01*
X167942797Y-76782197D01*
X168130069Y-76554006D01*
X168148000Y-76520459D01*
X168165931Y-76554006D01*
X168353203Y-76782197D01*
X168581395Y-76969469D01*
X168680695Y-77022546D01*
X168712454Y-77127246D01*
X168783026Y-77259276D01*
X168841303Y-77330286D01*
X168878000Y-77375001D01*
X168906998Y-77398799D01*
X171034848Y-79526650D01*
X171058932Y-79647729D01*
X171129414Y-79817889D01*
X171231738Y-79971028D01*
X171361972Y-80101262D01*
X171515111Y-80203586D01*
X171685271Y-80274068D01*
X171865911Y-80310000D01*
X172050089Y-80310000D01*
X172230729Y-80274068D01*
X172400889Y-80203586D01*
X172554028Y-80101262D01*
X172684262Y-79971028D01*
X172786586Y-79817889D01*
X172857068Y-79647729D01*
X172893000Y-79467089D01*
X172893000Y-79282911D01*
X172857068Y-79102271D01*
X172786586Y-78932111D01*
X172684262Y-78778972D01*
X172554028Y-78648738D01*
X172400889Y-78546414D01*
X172230729Y-78475932D01*
X172109650Y-78451848D01*
X170459290Y-76801489D01*
X170482797Y-76782197D01*
X170670069Y-76554006D01*
X170688000Y-76520459D01*
X170705931Y-76554006D01*
X170893203Y-76782197D01*
X171121395Y-76969469D01*
X171381737Y-77108625D01*
X171664224Y-77194316D01*
X171958000Y-77223251D01*
X172251777Y-77194316D01*
X172534264Y-77108625D01*
X172794606Y-76969469D01*
X173022797Y-76782197D01*
X173210069Y-76554006D01*
X173228000Y-76520459D01*
X173245931Y-76554006D01*
X173433203Y-76782197D01*
X173661395Y-76969469D01*
X173921737Y-77108625D01*
X174204224Y-77194316D01*
X174498000Y-77223251D01*
X174791777Y-77194316D01*
X175074264Y-77108625D01*
X175334606Y-76969469D01*
X175562797Y-76782197D01*
X175750069Y-76554006D01*
X175889225Y-76293663D01*
X175974916Y-76011176D01*
X175996600Y-75791018D01*
X175996600Y-75338981D01*
X175974916Y-75118823D01*
X175889225Y-74836336D01*
X175750069Y-74575994D01*
X175562797Y-74347803D01*
X175334605Y-74160531D01*
X175074263Y-74021375D01*
X174791776Y-73935684D01*
X174498000Y-73906749D01*
X174204223Y-73935684D01*
X173921736Y-74021375D01*
X173661394Y-74160531D01*
X173433203Y-74347803D01*
X173245931Y-74575995D01*
X173228000Y-74609541D01*
X173210069Y-74575994D01*
X173022797Y-74347803D01*
X172794605Y-74160531D01*
X172534263Y-74021375D01*
X172251776Y-73935684D01*
X171958000Y-73906749D01*
X171664223Y-73935684D01*
X171381736Y-74021375D01*
X171121394Y-74160531D01*
X170893203Y-74347803D01*
X170705931Y-74575995D01*
X170688000Y-74609541D01*
X170670069Y-74575994D01*
X170482797Y-74347803D01*
X170254605Y-74160531D01*
X169994263Y-74021375D01*
X169711776Y-73935684D01*
X169418000Y-73906749D01*
X169124223Y-73935684D01*
X168841736Y-74021375D01*
X168581394Y-74160531D01*
X168353203Y-74347803D01*
X168165931Y-74575995D01*
X168148000Y-74609541D01*
X168130069Y-74575994D01*
X167942797Y-74347803D01*
X167714605Y-74160531D01*
X167454263Y-74021375D01*
X167171776Y-73935684D01*
X166878000Y-73906749D01*
X166584223Y-73935684D01*
X166301736Y-74021375D01*
X166041394Y-74160531D01*
X165813203Y-74347803D01*
X165625931Y-74575995D01*
X165608000Y-74609541D01*
X165590069Y-74575994D01*
X165402797Y-74347803D01*
X165174605Y-74160531D01*
X164914263Y-74021375D01*
X164631776Y-73935684D01*
X164338000Y-73906749D01*
X164044223Y-73935684D01*
X163761736Y-74021375D01*
X163501394Y-74160531D01*
X163273203Y-74347803D01*
X163085931Y-74575995D01*
X163068000Y-74609541D01*
X163050069Y-74575994D01*
X162862797Y-74347803D01*
X162634605Y-74160531D01*
X162374263Y-74021375D01*
X162091776Y-73935684D01*
X161798000Y-73906749D01*
X161504223Y-73935684D01*
X161221736Y-74021375D01*
X160961394Y-74160531D01*
X160733203Y-74347803D01*
X160545931Y-74575995D01*
X160528000Y-74609541D01*
X160510069Y-74575994D01*
X160322797Y-74347803D01*
X160094605Y-74160531D01*
X159834263Y-74021375D01*
X159551776Y-73935684D01*
X159258000Y-73906749D01*
X158964223Y-73935684D01*
X158681736Y-74021375D01*
X158421394Y-74160531D01*
X158193203Y-74347803D01*
X158005931Y-74575995D01*
X157988000Y-74609541D01*
X157970069Y-74575994D01*
X157782797Y-74347803D01*
X157554605Y-74160531D01*
X157294263Y-74021375D01*
X157011776Y-73935684D01*
X156718000Y-73906749D01*
X156424223Y-73935684D01*
X156141736Y-74021375D01*
X155881394Y-74160531D01*
X155653203Y-74347803D01*
X155465931Y-74575995D01*
X155326775Y-74836337D01*
X155241084Y-75118824D01*
X155219400Y-75338982D01*
X154152600Y-75338982D01*
X154152600Y-75338981D01*
X154130916Y-75118823D01*
X154045225Y-74836336D01*
X153906069Y-74575994D01*
X153718797Y-74347803D01*
X153490605Y-74160531D01*
X153230263Y-74021375D01*
X152947776Y-73935684D01*
X152654000Y-73906749D01*
X152360223Y-73935684D01*
X152077736Y-74021375D01*
X151817394Y-74160531D01*
X151589203Y-74347803D01*
X151401931Y-74575995D01*
X151384000Y-74609541D01*
X151366069Y-74575994D01*
X151178797Y-74347803D01*
X150950605Y-74160531D01*
X150690263Y-74021375D01*
X150407776Y-73935684D01*
X150114000Y-73906749D01*
X149820223Y-73935684D01*
X149537736Y-74021375D01*
X149277394Y-74160531D01*
X149049203Y-74347803D01*
X148861931Y-74575995D01*
X148844000Y-74609541D01*
X148826069Y-74575994D01*
X148638797Y-74347803D01*
X148410605Y-74160531D01*
X148150263Y-74021375D01*
X147867776Y-73935684D01*
X147574000Y-73906749D01*
X147280223Y-73935684D01*
X146997736Y-74021375D01*
X146737394Y-74160531D01*
X146509203Y-74347803D01*
X146321931Y-74575995D01*
X146304000Y-74609541D01*
X146286069Y-74575994D01*
X146098797Y-74347803D01*
X145870605Y-74160531D01*
X145610263Y-74021375D01*
X145327776Y-73935684D01*
X145034000Y-73906749D01*
X144740223Y-73935684D01*
X144457736Y-74021375D01*
X144197394Y-74160531D01*
X143969203Y-74347803D01*
X143781931Y-74575995D01*
X143764000Y-74609541D01*
X143746069Y-74575994D01*
X143558797Y-74347803D01*
X143330605Y-74160531D01*
X143070263Y-74021375D01*
X142787776Y-73935684D01*
X142494000Y-73906749D01*
X142200223Y-73935684D01*
X141917736Y-74021375D01*
X141657394Y-74160531D01*
X141429203Y-74347803D01*
X141241931Y-74575995D01*
X141224000Y-74609541D01*
X141206069Y-74575994D01*
X141018797Y-74347803D01*
X140790605Y-74160531D01*
X140530263Y-74021375D01*
X140247776Y-73935684D01*
X139954000Y-73906749D01*
X139660223Y-73935684D01*
X139377736Y-74021375D01*
X139117394Y-74160531D01*
X138889203Y-74347803D01*
X138701931Y-74575995D01*
X138680576Y-74615947D01*
X138532486Y-74413271D01*
X138316035Y-74214267D01*
X138064919Y-74061314D01*
X137788789Y-73960291D01*
X137773026Y-73957642D01*
X137541000Y-74078783D01*
X137287000Y-74078783D01*
X137054974Y-73957642D01*
X137039211Y-73960291D01*
X136763081Y-74061314D01*
X136511965Y-74214267D01*
X136295514Y-74413271D01*
X136147424Y-74615947D01*
X136126069Y-74575994D01*
X135938797Y-74347803D01*
X135710605Y-74160531D01*
X135450263Y-74021375D01*
X135167776Y-73935684D01*
X134874000Y-73906749D01*
X134580223Y-73935684D01*
X134297736Y-74021375D01*
X134037394Y-74160531D01*
X133809203Y-74347803D01*
X133621931Y-74575995D01*
X133604000Y-74609541D01*
X133586069Y-74575994D01*
X133398797Y-74347803D01*
X133170605Y-74160531D01*
X132910263Y-74021375D01*
X132627776Y-73935684D01*
X132334000Y-73906749D01*
X132040223Y-73935684D01*
X131757736Y-74021375D01*
X131497394Y-74160531D01*
X131269203Y-74347803D01*
X131081931Y-74575995D01*
X131064000Y-74609541D01*
X131046069Y-74575994D01*
X130858797Y-74347803D01*
X130630605Y-74160531D01*
X130370263Y-74021375D01*
X130087776Y-73935684D01*
X129794000Y-73906749D01*
X129500223Y-73935684D01*
X129217736Y-74021375D01*
X128957394Y-74160531D01*
X128729203Y-74347803D01*
X128657001Y-74435781D01*
X128601464Y-74301702D01*
X128309594Y-73864887D01*
X128179707Y-73735000D01*
X175219909Y-73735000D01*
X176328001Y-74843093D01*
X176328000Y-85944125D01*
X176324565Y-85979000D01*
X176328000Y-86013875D01*
X176328000Y-86013876D01*
X176338273Y-86118183D01*
X176378872Y-86252019D01*
X176444800Y-86375362D01*
X176533525Y-86483474D01*
X176560617Y-86505708D01*
X178868001Y-88813093D01*
X178868001Y-88863294D01*
X178738113Y-88733406D01*
X178301298Y-88441536D01*
X177815935Y-88240492D01*
X177300677Y-88138000D01*
X176775323Y-88138000D01*
X176260065Y-88240492D01*
X175774702Y-88441536D01*
X175337887Y-88733406D01*
X174966406Y-89104887D01*
X174674536Y-89541702D01*
X174473492Y-90027065D01*
X174371000Y-90542323D01*
X174371000Y-91067677D01*
X174473492Y-91582935D01*
X174674536Y-92068298D01*
X174966406Y-92505113D01*
X175337887Y-92876594D01*
X175774702Y-93168464D01*
X176260065Y-93369508D01*
X176775323Y-93472000D01*
X177300677Y-93472000D01*
X177815935Y-93369508D01*
X178301298Y-93168464D01*
X178738113Y-92876594D01*
X178868001Y-92746706D01*
X178868000Y-116803293D01*
X178738113Y-116673406D01*
X178301298Y-116381536D01*
X177815935Y-116180492D01*
X177300677Y-116078000D01*
X176775323Y-116078000D01*
X176260065Y-116180492D01*
X175774702Y-116381536D01*
X175337887Y-116673406D01*
X174966406Y-117044887D01*
X174674536Y-117481702D01*
X174473492Y-117967065D01*
X174371000Y-118482323D01*
X174371000Y-119007677D01*
X174473492Y-119522935D01*
X174674536Y-120008298D01*
X174966406Y-120445113D01*
X175337887Y-120816594D01*
X175774702Y-121108464D01*
X176260065Y-121309508D01*
X176775323Y-121412000D01*
X177300677Y-121412000D01*
X177815935Y-121309508D01*
X178301298Y-121108464D01*
X178738113Y-120816594D01*
X178868000Y-120686707D01*
X178868000Y-120990908D01*
X176560617Y-123298292D01*
X176533526Y-123320525D01*
X176511293Y-123347616D01*
X176444801Y-123428637D01*
X176378872Y-123551981D01*
X176338274Y-123685816D01*
X176324565Y-123825000D01*
X176328001Y-123859885D01*
X176328000Y-125655000D01*
X126909707Y-125655000D01*
X127039594Y-125525113D01*
X127331464Y-125088298D01*
X127532508Y-124602935D01*
X127635000Y-124087677D01*
X127635000Y-123562323D01*
X127532508Y-123047065D01*
X127331464Y-122561702D01*
X127039594Y-122124887D01*
X126668113Y-121753406D01*
X126231298Y-121461536D01*
X125745935Y-121260492D01*
X125230677Y-121158000D01*
X124705323Y-121158000D01*
X124190065Y-121260492D01*
X123704702Y-121461536D01*
X123267887Y-121753406D01*
X122896406Y-122124887D01*
X122604536Y-122561702D01*
X122403492Y-123047065D01*
X122301000Y-123562323D01*
X122301000Y-124087677D01*
X122403492Y-124602935D01*
X122604536Y-125088298D01*
X122896406Y-125525113D01*
X123026293Y-125655000D01*
X111708000Y-125655000D01*
X111708000Y-112395000D01*
X124271749Y-112395000D01*
X124300684Y-112688777D01*
X124386375Y-112971264D01*
X124525531Y-113231606D01*
X124712803Y-113459797D01*
X124940994Y-113647069D01*
X125201336Y-113786225D01*
X125483823Y-113871916D01*
X125703981Y-113893600D01*
X127172019Y-113893600D01*
X127392177Y-113871916D01*
X127674664Y-113786225D01*
X127935006Y-113647069D01*
X128163197Y-113459797D01*
X128350469Y-113231606D01*
X128489625Y-112971264D01*
X128575316Y-112688777D01*
X128604251Y-112395000D01*
X128575316Y-112101223D01*
X128489625Y-111818736D01*
X128350469Y-111558394D01*
X128163197Y-111330203D01*
X127935006Y-111142931D01*
X127674664Y-111003775D01*
X127392177Y-110918084D01*
X127172019Y-110896400D01*
X125703981Y-110896400D01*
X125483823Y-110918084D01*
X125201336Y-111003775D01*
X124940994Y-111142931D01*
X124712803Y-111330203D01*
X124525531Y-111558394D01*
X124386375Y-111818736D01*
X124300684Y-112101223D01*
X124271749Y-112395000D01*
X111708000Y-112395000D01*
X111708000Y-107395000D01*
X124271749Y-107395000D01*
X124300684Y-107688777D01*
X124386375Y-107971264D01*
X124525531Y-108231606D01*
X124712803Y-108459797D01*
X124940994Y-108647069D01*
X125201336Y-108786225D01*
X125483823Y-108871916D01*
X125703981Y-108893600D01*
X127172019Y-108893600D01*
X127392177Y-108871916D01*
X127674664Y-108786225D01*
X127935006Y-108647069D01*
X128163197Y-108459797D01*
X128350469Y-108231606D01*
X128489625Y-107971264D01*
X128575316Y-107688777D01*
X128604251Y-107395000D01*
X136771749Y-107395000D01*
X136800684Y-107688777D01*
X136886375Y-107971264D01*
X137025531Y-108231606D01*
X137212803Y-108459797D01*
X137440994Y-108647069D01*
X137701336Y-108786225D01*
X137983823Y-108871916D01*
X138203981Y-108893600D01*
X139672019Y-108893600D01*
X139892177Y-108871916D01*
X140174664Y-108786225D01*
X140435006Y-108647069D01*
X140663197Y-108459797D01*
X140850469Y-108231606D01*
X140989625Y-107971264D01*
X141075316Y-107688777D01*
X141104251Y-107395000D01*
X141075316Y-107101223D01*
X140989625Y-106818736D01*
X140850469Y-106558394D01*
X140663197Y-106330203D01*
X140435006Y-106142931D01*
X140174664Y-106003775D01*
X139892177Y-105918084D01*
X139672019Y-105896400D01*
X138203981Y-105896400D01*
X137983823Y-105918084D01*
X137701336Y-106003775D01*
X137440994Y-106142931D01*
X137212803Y-106330203D01*
X137025531Y-106558394D01*
X136886375Y-106818736D01*
X136800684Y-107101223D01*
X136771749Y-107395000D01*
X128604251Y-107395000D01*
X128575316Y-107101223D01*
X128489625Y-106818736D01*
X128350469Y-106558394D01*
X128163197Y-106330203D01*
X127935006Y-106142931D01*
X127674664Y-106003775D01*
X127392177Y-105918084D01*
X127172019Y-105896400D01*
X125703981Y-105896400D01*
X125483823Y-105918084D01*
X125201336Y-106003775D01*
X124940994Y-106142931D01*
X124712803Y-106330203D01*
X124525531Y-106558394D01*
X124386375Y-106818736D01*
X124300684Y-107101223D01*
X124271749Y-107395000D01*
X111708000Y-107395000D01*
X111708000Y-89257702D01*
X125424903Y-89257702D01*
X125496486Y-89501671D01*
X125751996Y-89622571D01*
X126026184Y-89691300D01*
X126308512Y-89705217D01*
X126588130Y-89663787D01*
X126854292Y-89568603D01*
X126979514Y-89501671D01*
X127051097Y-89257702D01*
X126238000Y-88444605D01*
X125424903Y-89257702D01*
X111708000Y-89257702D01*
X111708000Y-88335512D01*
X124797783Y-88335512D01*
X124839213Y-88615130D01*
X124934397Y-88881292D01*
X125001329Y-89006514D01*
X125245298Y-89078097D01*
X126058395Y-88265000D01*
X126417605Y-88265000D01*
X127230702Y-89078097D01*
X127474671Y-89006514D01*
X127595571Y-88751004D01*
X127664300Y-88476816D01*
X127674741Y-88265000D01*
X134956057Y-88265000D01*
X134983764Y-88546309D01*
X135065818Y-88816808D01*
X135199068Y-89066101D01*
X135378392Y-89284608D01*
X135596899Y-89463932D01*
X135846192Y-89597182D01*
X136116691Y-89679236D01*
X136327508Y-89700000D01*
X136468492Y-89700000D01*
X136679309Y-89679236D01*
X136949808Y-89597182D01*
X137199101Y-89463932D01*
X137417608Y-89284608D01*
X137596932Y-89066101D01*
X137730182Y-88816808D01*
X137812236Y-88546309D01*
X137839943Y-88265000D01*
X137812236Y-87983691D01*
X137730182Y-87713192D01*
X137596932Y-87463899D01*
X137417608Y-87245392D01*
X137199101Y-87066068D01*
X136949808Y-86932818D01*
X136679309Y-86850764D01*
X136468492Y-86830000D01*
X136327508Y-86830000D01*
X136116691Y-86850764D01*
X135846192Y-86932818D01*
X135596899Y-87066068D01*
X135378392Y-87245392D01*
X135199068Y-87463899D01*
X135065818Y-87713192D01*
X134983764Y-87983691D01*
X134956057Y-88265000D01*
X127674741Y-88265000D01*
X127678217Y-88194488D01*
X127636787Y-87914870D01*
X127541603Y-87648708D01*
X127474671Y-87523486D01*
X127230702Y-87451903D01*
X126417605Y-88265000D01*
X126058395Y-88265000D01*
X125245298Y-87451903D01*
X125001329Y-87523486D01*
X124880429Y-87778996D01*
X124811700Y-88053184D01*
X124797783Y-88335512D01*
X111708000Y-88335512D01*
X111708000Y-87272298D01*
X125424903Y-87272298D01*
X126238000Y-88085395D01*
X127051097Y-87272298D01*
X126979514Y-87028329D01*
X126724004Y-86907429D01*
X126449816Y-86838700D01*
X126167488Y-86824783D01*
X125887870Y-86866213D01*
X125621708Y-86961397D01*
X125496486Y-87028329D01*
X125424903Y-87272298D01*
X111708000Y-87272298D01*
X111708000Y-73735000D01*
X124296293Y-73735000D01*
X124166406Y-73864887D01*
M02*
