G04 #@! TF.GenerationSoftware,KiCad,Pcbnew,(5.1.2-1)-1*
G04 #@! TF.CreationDate,2020-05-12T22:35:20+08:00*
G04 #@! TF.ProjectId,arduino_uno_exboard,61726475-696e-46f5-9f75-6e6f5f657862,rev?*
G04 #@! TF.SameCoordinates,Original*
G04 #@! TF.FileFunction,Legend,Top*
G04 #@! TF.FilePolarity,Positive*
%FSLAX46Y46*%
G04 Gerber Fmt 4.6, Leading zero omitted, Abs format (unit mm)*
G04 Created by KiCad (PCBNEW (5.1.2-1)-1) date 2020-05-12 22:35:20*
%MOMM*%
%LPD*%
G04 APERTURE LIST*
%ADD10C,0.150000*%
%ADD11C,0.120000*%
%ADD12C,0.101600*%
%ADD13C,0.203200*%
G04 APERTURE END LIST*
D10*
X139390380Y-120999285D02*
X139390380Y-121570714D01*
X139390380Y-121285000D02*
X138390380Y-121285000D01*
X138533238Y-121380238D01*
X138628476Y-121475476D01*
X138676095Y-121570714D01*
D11*
X135358000Y-88265000D02*
X134588000Y-88265000D01*
X127278000Y-88265000D02*
X128048000Y-88265000D01*
X134588000Y-86895000D02*
X128048000Y-86895000D01*
X134588000Y-89635000D02*
X134588000Y-86895000D01*
X128048000Y-89635000D02*
X134588000Y-89635000D01*
X128048000Y-86895000D02*
X128048000Y-89635000D01*
X126538000Y-116045000D02*
X126538000Y-113325000D01*
X126538000Y-106465000D02*
X126538000Y-103745000D01*
X138838000Y-108325000D02*
X138838000Y-111465000D01*
X138838000Y-103745000D02*
X138838000Y-106465000D01*
X137167050Y-109855000D02*
G75*
G03X137167050Y-109855000I-4579050J0D01*
G01*
X138838000Y-113325000D02*
X138838000Y-116045000D01*
X126538000Y-103745000D02*
X138838000Y-103745000D01*
X126538000Y-111465000D02*
X126538000Y-108325000D01*
X138838000Y-116045000D02*
X126538000Y-116045000D01*
D12*
X165698256Y-109855000D02*
G75*
G03X165698256Y-109855000I-8980256J0D01*
G01*
D13*
X164338000Y-110490000D02*
X164338000Y-111760000D01*
X164338000Y-109220000D02*
X164973000Y-110490000D01*
X164338000Y-107950000D02*
X164338000Y-109220000D01*
D11*
X169418000Y-79315000D02*
X170748000Y-79315000D01*
X170748000Y-79315000D02*
X170748000Y-80645000D01*
X168148000Y-79315000D02*
X168148000Y-81915000D01*
X168148000Y-81915000D02*
X170748000Y-81915000D01*
X170748000Y-81915000D02*
X170748000Y-89595000D01*
X165548000Y-89595000D02*
X170748000Y-89595000D01*
X165548000Y-79315000D02*
X165548000Y-89595000D01*
X165548000Y-79315000D02*
X168148000Y-79315000D01*
D10*
X140208000Y-125095000D02*
X157988000Y-125095000D01*
X157988000Y-125095000D02*
X157988000Y-122555000D01*
X157988000Y-122555000D02*
X140208000Y-122555000D01*
X137388000Y-125375000D02*
X138938000Y-125375000D01*
X140208000Y-125095000D02*
X140208000Y-122555000D01*
X138938000Y-122275000D02*
X137388000Y-122275000D01*
X137388000Y-122275000D02*
X137388000Y-125375000D01*
X163068000Y-125095000D02*
X175768000Y-125095000D01*
X175768000Y-125095000D02*
X175768000Y-122555000D01*
X175768000Y-122555000D02*
X163068000Y-122555000D01*
X160248000Y-125375000D02*
X161798000Y-125375000D01*
X163068000Y-125095000D02*
X163068000Y-122555000D01*
X161798000Y-122275000D02*
X160248000Y-122275000D01*
X160248000Y-122275000D02*
X160248000Y-125375000D01*
X131064000Y-76835000D02*
X153924000Y-76835000D01*
X153924000Y-76835000D02*
X153924000Y-74295000D01*
X153924000Y-74295000D02*
X131064000Y-74295000D01*
X128244000Y-77115000D02*
X129794000Y-77115000D01*
X131064000Y-76835000D02*
X131064000Y-74295000D01*
X129794000Y-74015000D02*
X128244000Y-74015000D01*
X128244000Y-74015000D02*
X128244000Y-77115000D01*
X157988000Y-76835000D02*
X175768000Y-76835000D01*
X175768000Y-76835000D02*
X175768000Y-74295000D01*
X175768000Y-74295000D02*
X157988000Y-74295000D01*
X155168000Y-77115000D02*
X156718000Y-77115000D01*
X157988000Y-76835000D02*
X157988000Y-74295000D01*
X156718000Y-74015000D02*
X155168000Y-74015000D01*
X155168000Y-74015000D02*
X155168000Y-77115000D01*
X127254000Y-123825000D02*
G75*
G03X127254000Y-123825000I-2286000J0D01*
G01*
X179324000Y-118745000D02*
G75*
G03X179324000Y-118745000I-2286000J0D01*
G01*
X128524000Y-75565000D02*
G75*
G03X128524000Y-75565000I-2286000J0D01*
G01*
X179324000Y-90805000D02*
G75*
G03X179324000Y-90805000I-2286000J0D01*
G01*
X131151333Y-86347380D02*
X130818000Y-85871190D01*
X130579904Y-86347380D02*
X130579904Y-85347380D01*
X130960857Y-85347380D01*
X131056095Y-85395000D01*
X131103714Y-85442619D01*
X131151333Y-85537857D01*
X131151333Y-85680714D01*
X131103714Y-85775952D01*
X131056095Y-85823571D01*
X130960857Y-85871190D01*
X130579904Y-85871190D01*
X132103714Y-86347380D02*
X131532285Y-86347380D01*
X131818000Y-86347380D02*
X131818000Y-85347380D01*
X131722761Y-85490238D01*
X131627523Y-85585476D01*
X131532285Y-85633095D01*
X131524666Y-117459761D02*
X131667523Y-117507380D01*
X131905619Y-117507380D01*
X132000857Y-117459761D01*
X132048476Y-117412142D01*
X132096095Y-117316904D01*
X132096095Y-117221666D01*
X132048476Y-117126428D01*
X132000857Y-117078809D01*
X131905619Y-117031190D01*
X131715142Y-116983571D01*
X131619904Y-116935952D01*
X131572285Y-116888333D01*
X131524666Y-116793095D01*
X131524666Y-116697857D01*
X131572285Y-116602619D01*
X131619904Y-116555000D01*
X131715142Y-116507380D01*
X131953238Y-116507380D01*
X132096095Y-116555000D01*
X132429428Y-116507380D02*
X132667523Y-117507380D01*
X132858000Y-116793095D01*
X133048476Y-117507380D01*
X133286571Y-116507380D01*
X134191333Y-117507380D02*
X133619904Y-117507380D01*
X133905619Y-117507380D02*
X133905619Y-116507380D01*
X133810380Y-116650238D01*
X133715142Y-116745476D01*
X133619904Y-116793095D01*
X167814666Y-77327380D02*
X167814666Y-78041666D01*
X167767047Y-78184523D01*
X167671809Y-78279761D01*
X167528952Y-78327380D01*
X167433714Y-78327380D01*
X168814666Y-78327380D02*
X168243238Y-78327380D01*
X168528952Y-78327380D02*
X168528952Y-77327380D01*
X168433714Y-77470238D01*
X168338476Y-77565476D01*
X168243238Y-77613095D01*
X147089904Y-121737380D02*
X147089904Y-120737380D01*
X147470857Y-120737380D01*
X147566095Y-120785000D01*
X147613714Y-120832619D01*
X147661333Y-120927857D01*
X147661333Y-121070714D01*
X147613714Y-121165952D01*
X147566095Y-121213571D01*
X147470857Y-121261190D01*
X147089904Y-121261190D01*
X148613714Y-121737380D02*
X148042285Y-121737380D01*
X148328000Y-121737380D02*
X148328000Y-120737380D01*
X148232761Y-120880238D01*
X148137523Y-120975476D01*
X148042285Y-121023095D01*
X167663904Y-121737380D02*
X167663904Y-120737380D01*
X168044857Y-120737380D01*
X168140095Y-120785000D01*
X168187714Y-120832619D01*
X168235333Y-120927857D01*
X168235333Y-121070714D01*
X168187714Y-121165952D01*
X168140095Y-121213571D01*
X168044857Y-121261190D01*
X167663904Y-121261190D01*
X168616285Y-120832619D02*
X168663904Y-120785000D01*
X168759142Y-120737380D01*
X168997238Y-120737380D01*
X169092476Y-120785000D01*
X169140095Y-120832619D01*
X169187714Y-120927857D01*
X169187714Y-121023095D01*
X169140095Y-121165952D01*
X168568666Y-121737380D01*
X169187714Y-121737380D01*
X140485904Y-78811380D02*
X140485904Y-77811380D01*
X140866857Y-77811380D01*
X140962095Y-77859000D01*
X141009714Y-77906619D01*
X141057333Y-78001857D01*
X141057333Y-78144714D01*
X141009714Y-78239952D01*
X140962095Y-78287571D01*
X140866857Y-78335190D01*
X140485904Y-78335190D01*
X141390666Y-77811380D02*
X142009714Y-77811380D01*
X141676380Y-78192333D01*
X141819238Y-78192333D01*
X141914476Y-78239952D01*
X141962095Y-78287571D01*
X142009714Y-78382809D01*
X142009714Y-78620904D01*
X141962095Y-78716142D01*
X141914476Y-78763761D01*
X141819238Y-78811380D01*
X141533523Y-78811380D01*
X141438285Y-78763761D01*
X141390666Y-78716142D01*
X164869904Y-78811380D02*
X164869904Y-77811380D01*
X165250857Y-77811380D01*
X165346095Y-77859000D01*
X165393714Y-77906619D01*
X165441333Y-78001857D01*
X165441333Y-78144714D01*
X165393714Y-78239952D01*
X165346095Y-78287571D01*
X165250857Y-78335190D01*
X164869904Y-78335190D01*
X166298476Y-78144714D02*
X166298476Y-78811380D01*
X166060380Y-77763761D02*
X165822285Y-78478047D01*
X166441333Y-78478047D01*
M02*
