G04 #@! TF.GenerationSoftware,KiCad,Pcbnew,(5.1.2-1)-1*
G04 #@! TF.CreationDate,2020-05-12T22:35:20+08:00*
G04 #@! TF.ProjectId,arduino_uno_exboard,61726475-696e-46f5-9f75-6e6f5f657862,rev?*
G04 #@! TF.SameCoordinates,Original*
G04 #@! TF.FileFunction,Legend,Bot*
G04 #@! TF.FilePolarity,Positive*
%FSLAX46Y46*%
G04 Gerber Fmt 4.6, Leading zero omitted, Abs format (unit mm)*
G04 Created by KiCad (PCBNEW (5.1.2-1)-1) date 2020-05-12 22:35:20*
%MOMM*%
%LPD*%
G04 APERTURE LIST*
%ADD10C,0.101600*%
%ADD11C,0.203200*%
G04 APERTURE END LIST*
D10*
X157167013Y-109855000D02*
G75*
G03X157167013Y-109855000I-449013J0D01*
G01*
D11*
X151892000Y-102235000D02*
X147828000Y-102235000D01*
X161544000Y-102235000D02*
X163703000Y-102235000D01*
X161544000Y-98679000D02*
X151892000Y-98679000D01*
X151892000Y-102235000D02*
X151892000Y-98679000D01*
X161544000Y-102235000D02*
X161544000Y-98679000D01*
X170688000Y-104267000D02*
X163703000Y-104267000D01*
X170688000Y-115443000D02*
X163703000Y-115443000D01*
X163703000Y-104267000D02*
X163703000Y-102235000D01*
X163703000Y-117475000D02*
X163703000Y-115443000D01*
X152654000Y-117475000D02*
X152654000Y-119380000D01*
X160782000Y-117475000D02*
X160782000Y-119380000D01*
X152654000Y-117475000D02*
X147828000Y-117475000D01*
X160782000Y-117475000D02*
X163703000Y-117475000D01*
X160782000Y-119380000D02*
X152654000Y-119380000D01*
X147828000Y-105029000D02*
X147828000Y-102235000D01*
X147828000Y-114681000D02*
X147828000Y-117475000D01*
X145288000Y-105029000D02*
X147828000Y-105029000D01*
X145288000Y-114681000D02*
X147828000Y-114681000D01*
X145288000Y-114681000D02*
X145288000Y-105029000D01*
X170688000Y-115443000D02*
X170688000Y-104267000D01*
D10*
X151577523Y-108917619D02*
X152605619Y-108917619D01*
X152726571Y-108857142D01*
X152787047Y-108796666D01*
X152847523Y-108675714D01*
X152847523Y-108433809D01*
X152787047Y-108312857D01*
X152726571Y-108252380D01*
X152605619Y-108191904D01*
X151577523Y-108191904D01*
X152847523Y-106921904D02*
X152847523Y-107647619D01*
X152847523Y-107284761D02*
X151577523Y-107284761D01*
X151758952Y-107405714D01*
X151879904Y-107526666D01*
X151940380Y-107647619D01*
X150307523Y-114058095D02*
X151214666Y-114058095D01*
X151396095Y-114118571D01*
X151517047Y-114239523D01*
X151577523Y-114420952D01*
X151577523Y-114541904D01*
X150307523Y-113211428D02*
X150307523Y-112969523D01*
X150368000Y-112848571D01*
X150488952Y-112727619D01*
X150730857Y-112667142D01*
X151154190Y-112667142D01*
X151396095Y-112727619D01*
X151517047Y-112848571D01*
X151577523Y-112969523D01*
X151577523Y-113211428D01*
X151517047Y-113332380D01*
X151396095Y-113453333D01*
X151154190Y-113513809D01*
X150730857Y-113513809D01*
X150488952Y-113453333D01*
X150368000Y-113332380D01*
X150307523Y-113211428D01*
X150972761Y-111880952D02*
X151577523Y-111880952D01*
X150307523Y-112304285D02*
X150972761Y-111880952D01*
X150307523Y-111457619D01*
X151517047Y-111094761D02*
X151577523Y-110913333D01*
X151577523Y-110610952D01*
X151517047Y-110490000D01*
X151456571Y-110429523D01*
X151335619Y-110369047D01*
X151214666Y-110369047D01*
X151093714Y-110429523D01*
X151033238Y-110490000D01*
X150972761Y-110610952D01*
X150912285Y-110852857D01*
X150851809Y-110973809D01*
X150791333Y-111034285D01*
X150670380Y-111094761D01*
X150549428Y-111094761D01*
X150428476Y-111034285D01*
X150368000Y-110973809D01*
X150307523Y-110852857D01*
X150307523Y-110550476D01*
X150368000Y-110369047D01*
X150307523Y-110006190D02*
X150307523Y-109280476D01*
X151577523Y-109643333D02*
X150307523Y-109643333D01*
X151577523Y-108857142D02*
X150307523Y-108857142D01*
X151456571Y-107526666D02*
X151517047Y-107587142D01*
X151577523Y-107768571D01*
X151577523Y-107889523D01*
X151517047Y-108070952D01*
X151396095Y-108191904D01*
X151275142Y-108252380D01*
X151033238Y-108312857D01*
X150851809Y-108312857D01*
X150609904Y-108252380D01*
X150488952Y-108191904D01*
X150368000Y-108070952D01*
X150307523Y-107889523D01*
X150307523Y-107768571D01*
X150368000Y-107587142D01*
X150428476Y-107526666D01*
X151577523Y-106982380D02*
X150307523Y-106982380D01*
X151577523Y-106256666D02*
X150851809Y-106800952D01*
X150307523Y-106256666D02*
X151033238Y-106982380D01*
X151577523Y-105712380D02*
X150307523Y-105712380D01*
X150307523Y-105228571D01*
X150368000Y-105107619D01*
X150428476Y-105047142D01*
X150549428Y-104986666D01*
X150730857Y-104986666D01*
X150851809Y-105047142D01*
X150912285Y-105107619D01*
X150972761Y-105228571D01*
X150972761Y-105712380D01*
X150307523Y-104623809D02*
X150307523Y-103898095D01*
X151577523Y-104260952D02*
X150307523Y-104260952D01*
X151577523Y-103474761D02*
X150307523Y-103474761D01*
X150912285Y-103474761D02*
X150912285Y-102749047D01*
X151577523Y-102749047D02*
X150307523Y-102749047D01*
M02*
